<svg width="44" height="40" viewBox="0 0 44 40" fill="none" xmlns="http://www.w3.org/2000/svg">
<path d="M12 0H4C1.8 0 0 1.8 0 4V7.8C0 9.1 0 10.3 0 11.2V24V30V32V36L0.6 38C1.3 39.2 2.6 40 4 40C4 40 20.2 40 22 40C23.8 40 42 40 42 40V30C43.1 30 44 29.1 44 28V18C44 16.9 43.1 16 42 16V0H33.9H12ZM13.2 6H4C2.9 6 2 5.1 2 4C2 2.9 2.9 2 4 2H12H34H40V6H32.8H13.2ZM22 6H15.5H22ZM22 2H24H22ZM24 0H22H24ZM30.5 6H24H30.5ZM40 38H4C2.9 38 2 37.1 2 36V7.4C2.6 7.8 3.3 8 4 8H40V16H21C17.1 16 14 19.1 14 23C14 26.9 17.1 30 21 30H40V38ZM42 28H21C18.2 28 16 25.8 16 23C16 20.2 18.2 18 21 18H42V28Z" fill="#FF9A01"/>
</svg>
