<svg width="41" height="47" viewBox="0 0 41 47" fill="none" xmlns="http://www.w3.org/2000/svg">
<path d="M39.1364 24.44V9.4H31.5886C31.1227 4.136 26.7432 0 21.4318 0C20.2205 0 19.1023 0.188 18.0773 0.564C17.9841 0.564 16.0273 1.222 14.7227 2.538C13.6977 3.384 12.6727 4.982 12.3 5.64C11.9273 6.204 11.5545 7.52 11.5545 7.52C11.275 8.272 11.275 8.742 11.1818 9.4H3.72727C1.67727 9.4 0 11.092 0 13.16V16.732C0 17.954 0 19.082 0 19.928V31.96V37.6V39.48V43.24L0.559091 45.12C1.21136 46.248 2.42273 47 3.72727 47C3.72727 47 18.8227 47 20.5 47C22.1773 47 39.1364 47 39.1364 47V37.6C40.1614 37.6 41 36.754 41 35.72V26.32C41 25.286 40.1614 24.44 39.1364 24.44ZM31.6818 11.28H37.2727V15.04H30.5636C31.1227 13.912 31.4955 12.596 31.6818 11.28ZM21.4318 1.88C26.0909 1.88 29.8182 5.64 29.8182 10.34C29.8182 12.032 29.3523 13.63 28.4205 15.04H22.3636C23.9477 15.04 25.1591 13.818 25.1591 12.22C25.1591 10.622 23.9477 9.4 22.3636 9.4H20.5C19.9409 9.4 19.5682 9.024 19.5682 8.46C19.5682 7.896 19.9409 7.52 20.5 7.52H22.3636C22.9227 7.52 23.2955 7.896 23.2955 8.46H25.1591C25.1591 6.862 23.9477 5.64 22.3636 5.64V3.76H20.5V5.64C18.9159 5.64 17.7045 6.862 17.7045 8.46C17.7045 10.058 18.9159 11.28 20.5 11.28H22.3636C22.9227 11.28 23.2955 11.656 23.2955 12.22C23.2955 12.784 22.9227 13.16 22.3636 13.16H20.5C19.9409 13.16 19.5682 12.784 19.5682 12.22H17.7045C17.7045 13.818 18.9159 15.04 20.5 15.04H14.4432C13.5114 13.63 13.0455 12.032 13.0455 10.34C13.0455 5.64 16.7727 1.88 21.4318 1.88ZM3.72727 11.28H11.1818C11.275 12.596 11.6477 13.912 12.3 15.04H3.72727C2.70227 15.04 1.86364 14.194 1.86364 13.16C1.86364 12.126 2.70227 11.28 3.72727 11.28ZM37.2727 45.12H3.72727C2.70227 45.12 1.86364 44.274 1.86364 43.24V16.356C2.42273 16.732 3.075 16.92 3.72727 16.92H37.2727V24.44H19.5682C15.9341 24.44 13.0455 27.354 13.0455 31.02C13.0455 34.686 15.9341 37.6 19.5682 37.6H37.2727V45.12ZM39.1364 35.72H19.5682C16.9591 35.72 14.9091 33.652 14.9091 31.02C14.9091 28.388 16.9591 26.32 19.5682 26.32H39.1364V35.72Z" fill="#FF9A01"/>
</svg>
