<svg width="40" height="40" viewBox="0 0 40 40" fill="none" xmlns="http://www.w3.org/2000/svg">
<path d="M38 2L2 38" stroke="#FF9A01" stroke-width="3" stroke-miterlimit="10"/>
<path d="M9.14513 16.9969H7.98957C5.96735 16.9969 4.30957 15.3436 4.30957 13.3169V7.9925C4.30957 5.97028 5.9629 4.3125 7.98957 4.3125H9.14513C11.1673 4.3125 12.8251 5.96583 12.8251 7.9925V13.3169C12.8251 15.3392 11.1673 16.9969 9.14513 16.9969Z" stroke="#FF9A01" stroke-width="3" stroke-miterlimit="10"/>
<path d="M32.0074 35.6884H30.8519C28.8297 35.6884 27.1719 34.035 27.1719 32.0084V26.6839C27.1719 24.6617 28.8252 23.0039 30.8519 23.0039H32.0074C34.0297 23.0039 35.6874 24.6572 35.6874 26.6839V32.0084C35.6874 34.035 34.0341 35.6884 32.0074 35.6884Z" stroke="#FF9A01" stroke-width="3" stroke-miterlimit="10"/>
</svg>
