<svg width="34" height="44" viewBox="0 0 34 44" fill="none" xmlns="http://www.w3.org/2000/svg">
<path d="M16.8267 15.3393C18.2004 15.7892 19.6759 15.819 21.0665 15.4251C22.4571 15.0312 23.7004 14.2312 24.6392 13.1263C25.578 12.0213 26.17 10.661 26.3405 9.2175C26.511 7.77396 26.2523 6.31195 25.5971 5.01637C24.9418 3.72079 23.9195 2.64983 22.6594 1.9389C21.3993 1.22798 19.9579 0.909027 18.5177 1.02238C17.0774 1.13574 15.7029 1.67631 14.5679 2.57575C13.433 3.47518 12.5886 4.69307 12.1415 6.07541C11.8407 6.99308 11.7234 7.96158 11.7964 8.92508C11.8694 9.88857 12.1313 10.828 12.5668 11.6892C13.0024 12.5504 13.603 13.3163 14.3341 13.9427C15.0653 14.5692 15.9124 15.0438 16.8267 15.3393ZM13.4639 6.50871C13.8258 5.38966 14.5093 4.40371 15.428 3.67555C16.3467 2.94739 17.4594 2.50971 18.6253 2.41787C19.7912 2.32603 20.958 2.58415 21.9781 3.15958C22.9983 3.73502 23.8259 4.60193 24.3564 5.65069C24.8869 6.69944 25.0965 7.88295 24.9585 9.05153C24.8206 10.2201 24.3414 11.3213 23.5815 12.2158C22.8217 13.1104 21.8152 13.7581 20.6895 14.0771C19.5638 14.396 18.3694 14.372 17.2573 14.0079C16.516 13.7705 15.8288 13.3874 15.2358 12.8807C14.6428 12.374 14.1557 11.7538 13.8028 11.0562C13.4499 10.3585 13.2382 9.59729 13.1801 8.81665C13.1219 8.03601 13.2184 7.25152 13.4639 6.50871Z" fill="#FF9A01" stroke="#FF9A01" stroke-width="0.5"/>
<path d="M1 26.9016V30.8357C1.00027 31.2398 1.08746 31.639 1.25558 32.006C1.42369 32.3729 1.66875 32.6989 1.97391 32.9616L4.65913 35.2786C5.66105 36.1418 6.74179 36.9077 7.88696 37.5662L8.84696 38.1178C9.65861 38.5851 10.529 38.9404 11.4348 39.1741V42.3018C11.4348 42.4874 11.5081 42.6655 11.6385 42.7967C11.769 42.928 11.9459 43.0018 12.1304 43.0018H16.3043C16.4888 43.0018 16.6658 42.928 16.7962 42.7967C16.9267 42.6655 17 42.4874 17 42.3018V39.5017H23.9565V42.3018C23.9565 42.4874 24.0298 42.6655 24.1603 42.7967C24.2907 42.928 24.4677 43.0018 24.6522 43.0018H28.8261C29.0106 43.0018 29.1875 42.928 29.318 42.7967C29.4484 42.6655 29.5217 42.4874 29.5217 42.3018V38.2487C30.587 37.5483 31.4626 36.5925 32.0698 35.4671C32.6769 34.3417 32.9966 33.0822 33 31.8017V24.8016C32.9976 22.7602 32.1906 20.803 30.7561 19.3595C29.3215 17.916 27.3766 17.104 25.3478 17.1016H12.4205C11.6655 17.1023 10.9209 17.2791 10.2452 17.6182L10.1263 17.677C7.92566 18.7811 6.2232 20.6841 5.36243 23.0019L4.69183 24.8016H3.08696C2.53346 24.8016 2.00264 25.0229 1.61126 25.4167C1.21988 25.8105 1 26.3447 1 26.9016ZM14.2174 18.5016H23.9565V19.2016C23.9565 19.3872 23.8832 19.5653 23.7528 19.6966C23.6223 19.8278 23.4454 19.9016 23.2609 19.9016H14.913C14.7285 19.9016 14.5516 19.8278 14.4211 19.6966C14.2907 19.5653 14.2174 19.3872 14.2174 19.2016V18.5016ZM2.3913 26.9016C2.3913 26.716 2.4646 26.5379 2.59506 26.4067C2.72552 26.2754 2.90246 26.2016 3.08696 26.2016H5.17391C5.31553 26.2018 5.45382 26.1584 5.57029 26.0774C5.68677 25.9963 5.77589 25.8814 5.82574 25.748L6.66539 23.494C7.40263 21.5078 8.86089 19.8769 10.7461 18.93L10.865 18.8712C11.3482 18.6288 11.8806 18.5022 12.4205 18.5016H12.8261V19.2016C12.8261 19.7585 13.046 20.2927 13.4373 20.6865C13.8287 21.0803 14.3595 21.3016 14.913 21.3016H23.2609C23.8144 21.3016 24.3452 21.0803 24.7366 20.6865C25.128 20.2927 25.3478 19.7585 25.3478 19.2016V18.5016C27.0077 18.5034 28.5992 19.1678 29.7729 20.3489C30.9466 21.5299 31.6069 23.1313 31.6087 24.8016V25.9559L30.4407 27.4259C30.0507 27.9189 29.5549 28.3166 28.9905 28.5895C28.4261 28.8624 27.8077 29.0033 27.1816 29.0017C26.9971 29.0017 26.8201 29.0754 26.6897 29.2067C26.5592 29.338 26.4859 29.516 26.4859 29.7017C26.4859 29.8873 26.5592 30.0654 26.6897 30.1966C26.8201 30.3279 26.9971 30.4017 27.1816 30.4017H27.4348C27.4815 30.4018 27.5281 30.3971 27.5739 30.3877C28.3406 30.3354 29.0881 30.1229 29.7687 29.7638C30.4493 29.4046 31.048 28.9066 31.5266 28.3017L31.6087 28.1974V31.8017C31.6055 32.9061 31.3147 33.9905 30.7655 34.9467C30.2163 35.903 29.4277 36.6977 28.4783 37.2519C28.3726 37.3133 28.2849 37.4016 28.2238 37.5078C28.1628 37.6141 28.1306 37.7347 28.1304 37.8574V41.6018H25.3478V38.8017C25.3478 38.6161 25.2745 38.438 25.1441 38.3068C25.0136 38.1755 24.8367 38.1017 24.6522 38.1017H16.3043C16.1198 38.1017 15.9429 38.1755 15.8124 38.3068C15.682 38.438 15.6087 38.6161 15.6087 38.8017V41.6018H12.8261V38.6148C12.8259 38.4529 12.77 38.296 12.6677 38.1709C12.5655 38.0458 12.4233 37.9602 12.2654 37.9288C11.3059 37.7375 10.3836 37.3909 9.53426 36.9026L8.57496 36.3517C7.50618 35.737 6.49763 35.0219 5.56278 34.216L2.87826 31.8997C2.72554 31.7682 2.60294 31.6051 2.51887 31.4214C2.43481 31.2377 2.39129 31.0379 2.3913 30.8357V26.9016Z" fill="#FF9A01" stroke="#FF9A01" stroke-width="0.5"/>
<path d="M9.34834 24.8008H7.95703V26.2008H9.34834V24.8008Z" fill="#FF9A01" stroke="#FF9A01" stroke-width="0.5"/>
<path d="M12.3336 25.9941C12.4648 26.1217 12.6405 26.1922 12.8229 26.1906C13.0053 26.189 13.1798 26.1154 13.3088 25.9856C13.4378 25.8558 13.5109 25.6803 13.5125 25.4967C13.5141 25.3132 13.444 25.1364 13.3173 25.0043L12.4178 24.0992H12.8254C13.0099 24.0992 13.1869 24.0255 13.3173 23.8942C13.4478 23.7629 13.5211 23.5849 13.5211 23.3992C13.5211 23.2136 13.4478 23.0355 13.3173 22.9042C13.1869 22.773 13.0099 22.6992 12.8254 22.6992H10.7385C10.6009 22.6992 10.4664 22.7403 10.3521 22.8172C10.2377 22.8942 10.1486 23.0035 10.0959 23.1314C10.0433 23.2593 10.0295 23.4 10.0563 23.5357C10.0832 23.6715 10.1494 23.7962 10.2466 23.8941L12.3336 25.9941Z" fill="#FF9A01" stroke="#FF9A01" stroke-width="0.5"/>
<path d="M15.9227 9.8441L14.7285 10.5625L15.4424 11.7641L16.6366 11.0457L15.9227 9.8441Z" fill="#FF9A01" stroke="#FF9A01" stroke-width="0.5"/>
<path d="M23.0867 5.53551L21.8926 6.25391L22.6065 7.45555L23.8007 6.73715L23.0867 5.53551Z" fill="#FF9A01" stroke="#FF9A01" stroke-width="0.5"/>
<path d="M18.948 8.67979L19.5456 8.55519C19.5727 8.55519 19.6423 8.53979 19.6687 8.53489C19.7526 8.5173 19.8391 8.51656 19.9232 8.53271C20.0074 8.54886 20.0876 8.58159 20.1591 8.629C20.2307 8.67642 20.2922 8.7376 20.3402 8.80902C20.3882 8.88045 20.4217 8.96071 20.4388 9.04519C20.4782 9.23845 20.4398 9.43956 20.3319 9.6043C20.224 9.76905 20.0555 9.88393 19.8635 9.9237L18.5417 10.1967C18.3734 10.232 18.224 10.3287 18.1224 10.4682C18.0208 10.6078 17.9741 10.7803 17.9914 10.9524C18.0087 11.1245 18.0887 11.2841 18.216 11.4004C18.3433 11.5166 18.5089 11.5814 18.6809 11.582C18.7276 11.5817 18.7742 11.577 18.82 11.568L20.1417 11.295C20.4158 11.2384 20.676 11.1279 20.9076 10.9701C21.1393 10.8122 21.3377 10.61 21.4916 10.3749C21.6456 10.1399 21.752 9.8766 21.8048 9.60016C21.8576 9.32372 21.8558 9.03952 21.7995 8.76379C21.7457 8.49896 21.6405 8.24742 21.4899 8.02359C21.3393 7.79976 21.1462 7.60805 20.9218 7.45945C20.6974 7.31085 20.4461 7.20828 20.1822 7.15763C19.9184 7.10698 19.6472 7.10924 19.3842 7.16428C19.3571 7.16624 19.3301 7.16999 19.3035 7.17548L18.6649 7.30848C18.473 7.34798 18.2734 7.30928 18.1099 7.20088C17.9463 7.09249 17.8322 6.92324 17.7925 6.73027C17.758 6.55971 17.7919 6.3823 17.8869 6.23684C17.982 6.09138 18.1303 5.98968 18.2997 5.95397L19.0238 5.80417C19.2008 5.76331 19.3549 5.65442 19.4532 5.50077C19.5515 5.34712 19.5862 5.16088 19.5499 4.98184C19.5135 4.8028 19.4091 4.64515 19.2588 4.54258C19.1085 4.44 18.9243 4.40062 18.7456 4.43286L18.0207 4.58266C17.4902 4.69336 17.0249 5.01122 16.727 5.46655C16.429 5.92189 16.3226 6.47754 16.4311 7.01168C16.4874 7.28756 16.5972 7.54958 16.7542 7.78275C16.9112 8.01592 17.1123 8.21567 17.346 8.37059C17.5798 8.52551 17.8416 8.63255 18.1164 8.68561C18.3913 8.73866 18.6739 8.73669 18.948 8.67979Z" fill="#FF9A01" stroke="#FF9A01" stroke-width="0.5"/>
</svg>
