<svg width="33" height="50" viewBox="0 0 33 50" fill="none" xmlns="http://www.w3.org/2000/svg">
<path d="M30.1505 7.65033H28.5516V2.95067C28.5691 2.72428 28.5004 2.49969 28.3595 2.32293C28.2186 2.14616 28.0162 2.03063 27.7939 2L2.78808 7.65033C2.62348 7.66093 2.4661 7.72253 2.33731 7.82678C2.20852 7.93102 2.11457 8.07285 2.06822 8.233C2.0223 8.35276 1.99917 8.48022 2.00002 8.60867V47.0493C1.9992 47.1753 2.02236 47.3002 2.06822 47.4173C2.11457 47.5775 2.20852 47.7193 2.33731 47.8236C2.4661 47.9278 2.62348 47.9894 2.78808 48H30.1505C30.387 47.9861 30.6086 47.8786 30.7674 47.7007C30.9263 47.5228 31.0095 47.2888 30.9991 47.0493V8.601C31.0095 8.36151 30.9263 8.12751 30.7674 7.94961C30.6086 7.77171 30.387 7.66421 30.1505 7.65033V7.65033Z" stroke="#FF9A01" stroke-width="3" stroke-miterlimit="10"/>
<path d="M29.2642 7.64844H2.73535" stroke="#FF9A01" stroke-width="3" stroke-linecap="round" stroke-linejoin="round"/>
<path d="M9.54004 40.1562H23.4069" stroke="#FF9A01" stroke-width="3" stroke-miterlimit="10" stroke-linecap="round"/>
<path d="M9.7971 19.865C9.46999 20.8529 9.31113 21.8899 9.32729 22.9316C9.32729 30.238 15.3211 32.699 16.3289 33.297C16.3724 33.3233 16.4222 33.3372 16.4729 33.3372C16.5236 33.3372 16.5733 33.3233 16.6169 33.297C17.6247 32.699 23.6185 30.4373 23.6185 22.9316C23.6346 21.8899 23.4758 20.8529 23.1487 19.865C20.6844 19.4113 18.3819 18.3086 16.4729 16.668C14.5639 18.3086 12.2613 19.4113 9.7971 19.865Z" stroke="#FF9A01" stroke-width="3" stroke-linecap="round" stroke-linejoin="round"/>
</svg>
