<svg width="41" height="45" viewBox="0 0 41 45" fill="none" xmlns="http://www.w3.org/2000/svg">
<path d="M24.7907 25.5781H7.62793V28.4198H24.7907V25.5781Z" fill="#FF9A01"/>
<path d="M24.7907 17.0508H7.62793V19.8925H24.7907V17.0508Z" fill="#FF9A01"/>
<path d="M24.7907 8.52734H7.62793V11.369H24.7907V8.52734Z" fill="#FF9A01"/>
<path d="M39.0928 6.63197H32.4188V1.89446C32.4188 0.710086 31.7042 0 30.5117 0H1.90672C0.714682 0 0 0.710086 0 1.89446V36.9465C0 38.1318 0.714682 38.8423 1.90672 38.8423H8.58116V43.1055C8.58116 44.2899 9.2963 45 10.4883 45H39.0928C40.2853 45 41 44.2899 41 43.1055V8.52643C41 7.3416 40.2853 6.63197 39.0928 6.63197ZM2.86054 35.0525V3.78937C2.86054 3.19719 3.21788 2.84169 3.8139 2.84169H28.6045C29.2005 2.84169 29.5578 3.19719 29.5578 3.78937V35.0525C29.5578 35.6442 29.2005 35.9993 28.6045 35.9993H3.8139C3.21788 35.9993 2.86054 35.6442 2.86054 35.0525ZM38.139 41.2097C38.139 41.8019 37.7817 42.1565 37.1861 42.1565H12.872C12.276 42.1565 11.9186 41.8024 11.9186 41.2097V38.841H30.5117C31.7042 38.841 32.4188 38.1309 32.4188 36.9461V9.9475H37.1861C37.7817 9.9475 38.139 10.3021 38.139 10.8943V41.2097Z" fill="#FF9A01"/>
</svg>
