<svg width="41" height="33" viewBox="0 0 41 33" fill="none" xmlns="http://www.w3.org/2000/svg">
<path d="M38.4375 6.34615H28.1875V1.26923C28.1875 0.93261 28.0525 0.609776 27.8122 0.371749C27.572 0.133722 27.2461 0 26.9062 0H14.0938C13.7539 0 13.4281 0.133722 13.1878 0.371749C12.9475 0.609776 12.8125 0.93261 12.8125 1.26923V6.34615H2.5625C1.88288 6.34615 1.2311 6.6136 0.750539 7.08965C0.269977 7.56571 0 8.21137 0 8.88461L0 30.4615C0 31.1348 0.269977 31.7804 0.750539 32.2565C1.2311 32.7326 1.88288 33 2.5625 33H38.4375C39.1171 33 39.7689 32.7326 40.2495 32.2565C40.73 31.7804 41 31.1348 41 30.4615V8.88461C41 8.21137 40.73 7.56571 40.2495 7.08965C39.7689 6.6136 39.1171 6.34615 38.4375 6.34615ZM15.375 2.53846H25.625V6.34615H15.375V2.53846ZM2.5625 8.88461H38.4375V14.5962C38.4375 15.9426 37.8975 17.234 36.9364 18.1861C35.9753 19.1382 34.6717 19.6731 33.3125 19.6731H24.3438V18.4038C24.3438 17.7306 24.0738 17.0849 23.5932 16.6089C23.1126 16.1328 22.4609 15.8654 21.7812 15.8654H19.2188C18.5391 15.8654 17.8874 16.1328 17.4068 16.6089C16.9262 17.0849 16.6562 17.7306 16.6562 18.4038V19.6731H7.6875C6.32827 19.6731 5.0247 19.1382 4.06358 18.1861C3.10245 17.234 2.5625 15.9426 2.5625 14.5962V8.88461ZM21.7812 23.4808H19.2188V18.4038H21.7812V20.9423V23.4808ZM2.5625 30.4615V20.2569C3.96963 21.5113 5.7945 22.2073 7.6875 22.2115H16.6562V23.4808C16.6562 24.154 16.9262 24.7997 17.4068 25.2757C17.8874 25.7518 18.5391 26.0192 19.2188 26.0192H21.7812C22.4609 26.0192 23.1126 25.7518 23.5932 25.2757C24.0738 24.7997 24.3438 24.154 24.3438 23.4808V22.2115H33.3125C35.2065 22.2127 37.0333 21.516 38.4375 20.2569V30.4615H2.5625Z" fill="#FF9A01"/>
</svg>
