<svg width="41" height="42" viewBox="0 0 41 42" fill="none" xmlns="http://www.w3.org/2000/svg">
<path d="M35.3053 3.40466H31.8894V0H29.6106V3.40466H11.3894V0H9.11064V3.40466H5.69468C2.55397 3.40466 0 5.95018 0 9.08051V36.3242C0 39.4545 2.55397 42 5.69468 42H35.3053C38.446 42 41 39.4545 41 36.3242V14.7564V12.4873V9.08051C41 5.9523 38.446 3.40466 35.3053 3.40466ZM38.7234 36.3242C38.7234 38.2019 37.1915 39.7288 35.3075 39.7288H5.69468C3.81068 39.7288 2.27873 38.2019 2.27873 36.3242V14.7564H38.7234V36.3242ZM38.7234 12.4873H2.27659V9.08051C2.27659 7.20273 3.80854 5.67585 5.69255 5.67585H9.1085V7.94704H11.3894V5.67585H29.6128V7.94704H31.8915V5.67585H35.3075C37.1915 5.67585 38.7234 7.20273 38.7234 9.08051V12.4873Z" fill="#FF9A01"/>
<path d="M18.2211 26.1061H22.7764C24.0331 26.1061 25.0552 25.0874 25.0552 23.8349V19.2946C25.0552 18.0421 24.0331 17.0234 22.7764 17.0234H18.2211C16.9644 17.0234 15.9424 18.0421 15.9424 19.2946V23.8349C15.9445 25.0874 16.9665 26.1061 18.2211 26.1061ZM18.2211 19.2946H22.7764L22.7786 23.8349H18.2211V19.2946Z" fill="#FF9A01"/>
<path d="M29.6108 26.1061H34.1661C35.4228 26.1061 36.4448 25.0874 36.4448 23.8349V19.2946C36.4448 18.0421 35.4228 17.0234 34.1661 17.0234H29.6108C28.354 17.0234 27.332 18.0421 27.332 19.2946V23.8349C27.3342 25.0874 28.3562 26.1061 29.6108 26.1061ZM29.6108 19.2946H34.1661L34.1682 23.8349H29.6108V19.2946Z" fill="#FF9A01"/>
<path d="M6.83439 37.4615H11.3897C12.6464 37.4615 13.6684 36.4429 13.6684 35.1904V30.6501C13.6684 29.3975 12.6464 28.3789 11.3897 28.3789H6.83439C5.57768 28.3789 4.55566 29.3975 4.55566 30.6501V35.1904C4.55566 36.4429 5.57768 37.4615 6.83439 37.4615ZM6.83439 30.6501H11.3897L11.3918 35.1904H6.83439V30.6501Z" fill="#FF9A01"/>
<path d="M18.2211 37.4615H22.7764C24.0331 37.4615 25.0552 36.4429 25.0552 35.1904V30.6501C25.0552 29.3975 24.0331 28.3789 22.7764 28.3789H18.2211C16.9644 28.3789 15.9424 29.3975 15.9424 30.6501V35.1904C15.9445 36.4429 16.9665 37.4615 18.2211 37.4615ZM18.2211 30.6501H22.7764L22.7786 35.1904H18.2211V30.6501Z" fill="#FF9A01"/>
<path d="M29.6108 37.4615H34.1661C35.4228 37.4615 36.4448 36.4429 36.4448 35.1904V30.6501C36.4448 29.3975 35.4228 28.3789 34.1661 28.3789H29.6108C28.354 28.3789 27.332 29.3975 27.332 30.6501V35.1904C27.3342 36.4429 28.3562 37.4615 29.6108 37.4615ZM29.6108 30.6501H34.1661L34.1682 35.1904H29.6108V30.6501Z" fill="#FF9A01"/>
</svg>
