<svg width="135" height="45" viewBox="0 0 135 45" fill="none" xmlns="http://www.w3.org/2000/svg">
<path d="M5.21233 31.2037V23.5668C5.87104 23.5668 6.5011 23.5668 7.18844 23.4524L11.5989 31.2037H17.2981V30.4028L11.8566 21.5933C15.8375 19.0476 15.7229 15.2721 15.7229 11.182C13.9473 11.182 12.2003 11.182 10.4533 11.182C10.4533 14.9289 10.7111 18.7616 5.58464 18.7616H5.21233V11.182C3.4367 11.182 1.71835 11.182 0 11.182V31.2037C1.71835 31.2037 3.4367 31.2037 5.21233 31.2037Z" fill="white"/>
<path d="M39.5796 21.2214C39.5796 7.37785 19.0166 7.37785 19.0166 21.2214C19.0166 35.0936 39.5796 35.0936 39.5796 21.2214ZM24.2863 21.2214C24.2863 14.0136 34.3386 14.0136 34.3386 21.2214C34.3386 28.4864 24.2863 28.4864 24.2863 21.2214Z" fill="white"/>
<path d="M53.1423 19.8199L45.2951 11.1248H43.4049V31.2037C45.1519 31.2037 46.8989 31.2037 48.6459 31.2037V22.2797L52.8845 26.7417H53.4573L57.7245 22.2797V31.2037C59.4715 31.2037 61.2185 31.2037 62.9655 31.2037V11.1248H61.1326L53.1423 19.8199Z" fill="white"/>
<path d="M84.77 11.182C71.596 11.182 69.8203 11.182 68.102 11.182V31.2037C69.8203 31.2037 71.596 31.2037 73.343 31.2037V15.9014H79.529V31.2037C81.276 31.2037 83.023 31.2037 84.77 31.2037V11.182Z" fill="white"/>
<path d="M115.21 21.1928C115.239 28.0002 120.394 31.4325 125.492 31.4039C129.759 31.4039 134.255 29.1729 135 23.5096C133.253 23.5096 131.678 23.5096 129.96 23.5096C129.415 25.6548 127.668 26.7417 125.492 26.7417C122.456 26.7131 120.509 24.1389 120.509 21.1928C120.509 17.8749 122.485 15.6153 125.492 15.6153C127.64 15.6153 129.158 16.5306 129.874 18.5614C131.621 18.5614 133.167 18.5614 134.914 18.5614C134.141 13.2127 129.644 10.9532 125.492 10.9532C120.394 10.9532 115.239 14.3854 115.21 21.1928Z" fill="white"/>
<path d="M95.4192 21.6508L90.0965 20.1859L89.877 20.9752L93.7202 44.3555L96.0622 45L111.411 26.9017L111.631 26.1124L106.308 24.6475L104.318 26.9759L95.9231 24.6656L95.4192 21.6508ZM96.3951 29.796L101.262 31.1353L97.3048 36.06L96.3951 29.796Z" fill="#2988CD"/>
<path d="M106.43 23.3644L111.701 25.0035L111.947 24.2219L108.881 0.729398L106.562 0.00817871L90.6197 17.5904L90.374 18.3721L95.6456 20.0112L97.7121 17.7497L106.026 20.3349L106.43 23.3644ZM105.724 15.1921L100.905 13.6934L105.023 8.90186L105.724 15.1921Z" fill="#FF8E02"/>
<path d="M3.1631 5.74958C4.11723 5.74958 4.92128 5.36413 5.37155 4.63607L4.80335 4.25062C4.41741 4.81808 3.81706 5.07505 3.1631 5.07505C1.93023 5.07505 1.0297 4.20779 1.0297 2.88014C1.0297 1.5632 1.93023 0.685238 3.1631 0.685238C3.81706 0.685238 4.41741 0.952909 4.80335 1.52037L5.37155 1.13493C4.92128 0.396153 4.11723 0.0214134 3.1631 0.0214134C1.47996 0.0214134 0.257812 1.19917 0.257812 2.88014C0.257812 4.56112 1.47996 5.74958 3.1631 5.74958Z" fill="white"/>
<path d="M10.7502 0.0642409H5.72223V0.738772H7.85563V5.69604H8.6168V0.738772H10.7502V0.0642409Z" fill="white"/>
<path d="M15.9133 0.0642409L13.7907 4.8502L11.668 0.0642409H10.8747L13.394 5.68534L13.1474 6.23139C12.8258 6.93804 12.4827 7.17359 11.9789 7.17359C11.5715 7.17359 11.2284 7.02369 10.9497 6.74531L10.5959 7.31278C10.939 7.6554 11.4429 7.82671 11.9682 7.82671C12.7722 7.82671 13.3726 7.47338 13.8443 6.37057L16.6638 0.0642409H15.9133Z" fill="white"/>
<path d="M22.219 5.03222V0.0642409H18.0594L17.9844 1.94865C17.9093 3.46902 17.7699 4.97868 16.9337 5.03222H16.6121V7.05581H17.3304V5.69604H22.3798V7.05581H23.0981V5.03222H22.219ZM18.6812 1.99147L18.7455 0.738772H21.4578V5.03222H17.9415C18.5097 4.60394 18.6276 3.2763 18.6812 1.99147Z" fill="white"/>
<path d="M24.5815 5.69604H25.2676L29.0198 1.22058V5.69604H29.781V0.0642409H29.1056L25.3426 4.5397V0.0642409H24.5815V5.69604Z" fill="white"/>
<path d="M33.9242 0.0642409C32.4662 0.0642409 31.5228 0.706652 31.5228 1.99147C31.5228 2.90156 32.016 3.49043 32.8843 3.72598L31.4799 5.69604H32.3054L33.6133 3.83305H35.5967V5.69604H36.2935V0.0642409H33.9242ZM32.2947 2.01289C32.2947 1.11351 32.8951 0.738772 33.9457 0.738772H35.5967V3.26559H33.8921C32.8415 3.26559 32.2947 2.86944 32.2947 2.01289Z" fill="white"/>
<path d="M45.2362 0.0642409H40.2083V0.738772H42.3417V5.69604H43.1028V0.738772H45.2362V0.0642409Z" fill="white"/>
<path d="M50.3994 0.0642409L48.2767 4.8502L46.154 0.0642409H45.3607L47.8801 5.68534L47.6335 6.23139C47.3119 6.93804 46.9688 7.17359 46.4649 7.17359C46.0575 7.17359 45.7145 7.02369 45.4357 6.74531L45.082 7.31278C45.425 7.6554 45.9289 7.82671 46.4542 7.82671C47.2583 7.82671 47.8586 7.47338 48.3303 6.37057L51.1498 0.0642409H50.3994Z" fill="white"/>
<path d="M55.241 0.0214134C54.3083 0.0214134 53.5257 0.428274 53.0647 1.17775V0.0642409H52.3357V7.77317H53.0969V4.63607C53.5686 5.36413 54.3405 5.74958 55.241 5.74958C56.8491 5.74958 58.0498 4.59324 58.0498 2.88014C58.0498 1.17775 56.8491 0.0214134 55.241 0.0214134ZM55.1874 5.07505C53.9867 5.07505 53.0862 4.19708 53.0862 2.88014C53.0862 1.57391 53.9867 0.685238 55.1874 0.685238C56.3774 0.685238 57.2887 1.57391 57.2887 2.88014C57.2887 4.19708 56.3774 5.07505 55.1874 5.07505Z" fill="white"/>
<path d="M59.6852 5.69604H60.3713L64.1235 1.22058V5.69604H64.8847V0.0642409H64.2093L60.4464 4.5397V0.0642409H59.6852V5.69604Z" fill="white"/>
<path d="M69.6954 2.76237C70.3494 2.54823 70.7889 2.09854 70.7889 1.50967C70.7889 0.588876 69.8026 0 68.5162 0C67.83 0 67.1225 0.160603 66.4256 0.524635L66.64 1.11351C67.2404 0.803014 67.8622 0.653118 68.4411 0.653118C69.3416 0.653118 70.0063 0.995737 70.0063 1.61673C70.0063 2.17349 69.4274 2.5054 68.6019 2.5054H67.6799V3.06216H68.6448C69.5882 3.06216 70.1671 3.41548 70.1671 4.01507C70.1671 4.70031 69.406 5.10717 68.3875 5.10717C67.7014 5.10717 66.9724 4.89303 66.4471 4.49688L66.1898 5.06434C66.7901 5.52473 67.6156 5.76028 68.4197 5.76028C69.8241 5.76028 70.9497 5.09646 70.9497 4.07931C70.9497 3.41548 70.4887 2.94438 69.6954 2.76237Z" fill="white"/>
<path d="M78.2738 0.0642409L75.8403 4.12214L73.4496 0.0642409H72.6777V5.69604H73.3745V1.23129L75.658 5.0108H76.0011L78.2846 1.24199V5.69604H78.9814V0.0642409H78.2738Z" fill="white"/>
<path d="M83.0878 0.0214134C82.198 0.0214134 81.3618 0.299792 80.7936 0.7816L81.1367 1.34906C81.5976 0.942202 82.2838 0.685238 83.0128 0.685238C84.0634 0.685238 84.6101 1.20987 84.6101 2.17349V2.51611H82.8198C81.201 2.51611 80.6435 3.24417 80.6435 4.11143C80.6435 5.08575 81.4261 5.74958 82.7019 5.74958C83.6346 5.74958 84.2992 5.39625 84.6423 4.81808V5.69604H85.3713V2.20561C85.3713 0.749479 84.5458 0.0214134 83.0878 0.0214134ZM82.8198 5.14999C81.9193 5.14999 81.394 4.74313 81.394 4.09002C81.394 3.51185 81.7477 3.08357 82.8412 3.08357H84.6101V4.00436C84.31 4.74313 83.6775 5.14999 82.8198 5.14999Z" fill="white"/>
</svg>
