<?xml version="1.0" encoding="utf-8"?>
<!-- Generator: Adobe Illustrator 22.1.0, SVG Export Plug-In . SVG Version: 6.00 Build 0)  -->
<svg version="1.1" id="Layer_1" xmlns="http://www.w3.org/2000/svg" xmlns:xlink="http://www.w3.org/1999/xlink" x="0px" y="0px"
	 viewBox="0 0 135 45" style="enable-background:new 0 0 135 45;" xml:space="preserve">
<style type="text/css">
	.st0{fill:#FF8E02;}
	.st1{fill:#2988CD;}
</style>
<path d="M5.2,32.7v-7.6c0.7,0,1.3,0,2-0.1l4.4,7.8h5.7v-0.8l-5.4-8.8c4-2.5,3.9-6.3,3.9-10.4c-1.8,0-3.5,0-5.3,0
	c0,3.7,0.3,7.6-4.9,7.6H5.2v-7.6c-1.8,0-3.5,0-5.2,0v20C1.7,32.7,3.4,32.7,5.2,32.7z"/>
<path d="M39.6,22.7c0-13.8-20.6-13.8-20.6,0C19,36.6,39.6,36.6,39.6,22.7z M24.3,22.7c0-7.2,10.1-7.2,10.1,0
	C34.3,30,24.3,30,24.3,22.7z"/>
<path d="M53.1,21.3l-7.8-8.7h-1.9v20.1c1.7,0,3.5,0,5.2,0v-8.9l4.2,4.5h0.6l4.3-4.5v8.9c1.7,0,3.5,0,5.2,0V12.6h-1.8L53.1,21.3z"/>
<path d="M84.8,12.7c-13.2,0-14.9,0-16.7,0v20c1.7,0,3.5,0,5.2,0V17.4h6.2v15.3c1.7,0,3.5,0,5.2,0V12.7z"/>
<path d="M115.2,22.7c0,6.8,5.2,10.2,10.3,10.2c4.3,0,8.8-2.2,9.5-7.9c-1.7,0-3.3,0-5,0c-0.5,2.1-2.3,3.2-4.5,3.2c-3,0-5-2.6-5-5.5
	c0-3.3,2-5.6,5-5.6c2.1,0,3.7,0.9,4.4,2.9c1.7,0,3.3,0,5,0c-0.8-5.3-5.3-7.6-9.4-7.6C120.4,12.5,115.2,15.9,115.2,22.7z"/>
<path class="st0" d="M106.2,23.9l5.3,1.6l0.2-0.8l-3.1-23.5l-2.3-0.7L90.4,18.1l-0.2,0.8l5.3,1.6l2.1-2.3l8.3,2.6L106.2,23.9z
	 M105.5,15.7l-4.8-1.5l4.1-4.8L105.5,15.7z"/>
<path class="st1" d="M94.7,21.7l-5.3-1.5L89.1,21L93,44.4l2.3,0.6l15.3-18.1l0.2-0.8l-5.3-1.5l-2,2.3l-8.4-2.3L94.7,21.7z
	 M95.6,29.8l4.9,1.3l-4,4.9L95.6,29.8z"/>
</svg>
