<?xml version="1.0" standalone="no"?>
<!DOCTYPE svg PUBLIC "-//W3C//DTD SVG 20010904//EN"
 "http://www.w3.org/TR/2001/REC-SVG-20010904/DTD/svg10.dtd">
<svg version="1.0" xmlns="http://www.w3.org/2000/svg"
 width="700.000000pt" height="700.000000pt" viewBox="0 0 700.000000 700.000000"
 preserveAspectRatio="xMidYMid meet">
<metadata>
Created by potrace 1.11, written by Peter Selinger 2001-2013
</metadata>
<g transform="translate(0.000000,700.000000) scale(0.100000,-0.100000)"
fill="#000000" stroke="none">
<path d="M4378 6991 c-3 -8 -95 -113 -163 -185 -16 -18 -68 -75 -115 -126 -47
-52 -92 -101 -100 -110 -8 -9 -53 -59 -100 -111 -47 -52 -89 -99 -95 -105 -5
-6 -46 -50 -90 -99 -44 -49 -103 -114 -132 -145 -29 -31 -62 -67 -73 -80 -25
-29 -168 -186 -190 -210 -8 -8 -71 -78 -140 -155 -69 -76 -132 -146 -140 -155
-8 -9 -53 -58 -100 -110 -47 -51 -98 -108 -115 -126 -16 -17 -58 -63 -91 -100
-34 -38 -72 -81 -85 -95 -13 -14 -60 -65 -104 -114 -44 -48 -97 -107 -118
-129 -21 -23 -62 -67 -90 -100 -29 -32 -65 -73 -82 -90 -16 -18 -66 -72 -110
-121 -44 -49 -101 -111 -126 -139 -25 -28 -60 -66 -77 -85 -17 -19 -40 -61
-51 -93 -18 -54 -19 -59 -3 -67 19 -10 31 -13 476 -151 l329 -102 36 40 c66
73 195 215 241 264 l45 48 65 -21 c36 -11 121 -38 190 -59 69 -21 258 -80 420
-130 162 -50 363 -112 445 -137 83 -25 155 -51 161 -57 9 -9 22 -79 40 -221 3
-25 18 -135 29 -210 1 -11 3 -25 4 -31 0 -7 11 -14 24 -17 12 -3 58 -16 102
-30 44 -14 152 -48 240 -75 88 -28 225 -71 305 -96 79 -24 147 -43 149 -40 12
12 38 116 36 141 -4 40 -17 145 -21 168 -2 11 -7 40 -10 65 -3 25 -7 56 -9 70
-2 14 -7 50 -10 80 -3 30 -8 66 -10 80 -2 14 -6 45 -10 70 -3 25 -10 77 -15
115 -5 39 -12 89 -15 113 -16 133 -19 151 -45 355 -26 196 -29 222 -36 272 -2
22 -6 51 -9 65 -2 14 -9 68 -15 120 -6 52 -13 106 -16 120 -2 14 -6 50 -9 80
-4 30 -8 62 -10 70 -2 8 -7 47 -11 85 -3 39 -8 72 -9 75 -2 3 -7 37 -10 75 -4
39 -9 73 -11 76 -2 3 -6 30 -9 60 -3 30 -7 69 -10 87 -2 18 -7 52 -10 75 -19
139 -30 226 -41 322 -3 22 -7 51 -9 65 -3 14 -7 48 -10 75 -3 28 -12 100 -21
160 -8 61 -17 127 -19 148 -11 81 -15 111 -19 146 -3 20 -13 92 -22 161 -21
162 -21 164 -23 172 0 4 -38 18 -83 32 -46 14 -126 39 -178 56 -105 33 -107
34 -112 21z m-213 -1487 c4 -38 8 -83 10 -101 5 -52 16 -156 20 -183 2 -14 6
-54 10 -90 4 -36 8 -76 10 -90 2 -14 6 -56 10 -95 6 -72 12 -118 20 -170 10
-66 14 -135 8 -135 -6 0 -36 9 -118 36 -22 7 -101 31 -175 54 -74 23 -146 45
-160 50 -14 5 -85 27 -157 50 l-133 40 221 258 c122 141 235 273 253 293 74
84 132 153 145 172 14 20 14 20 22 0 4 -11 10 -51 14 -89z"/>
<path d="M1811 3808 c-7 -29 -13 -60 -14 -68 0 -16 12 -107 19 -144 11 -56 16
-83 19 -106 1 -14 8 -56 15 -95 6 -38 14 -88 16 -110 3 -22 7 -47 10 -56 2 -9
7 -34 9 -55 3 -22 7 -50 10 -64 6 -30 6 -25 44 -262 111 -680 99 -605 106
-638 3 -14 7 -41 9 -60 3 -20 7 -47 10 -60 4 -14 8 -38 10 -55 2 -16 9 -61 16
-100 6 -38 13 -83 15 -100 4 -32 15 -98 21 -130 2 -11 9 -49 15 -85 5 -36 36
-225 69 -420 69 -420 67 -407 80 -490 5 -36 12 -78 15 -95 13 -69 18 -97 50
-300 14 -88 28 -172 31 -187 6 -29 9 -31 149 -68 39 -10 101 -27 140 -38 38
-12 75 -17 81 -14 6 4 88 97 181 207 93 110 262 310 377 445 114 135 217 256
228 270 12 14 35 41 52 60 17 20 51 60 76 90 25 30 65 77 89 105 47 54 61 71
136 160 27 33 52 62 55 65 3 3 28 32 55 65 28 33 52 62 55 65 3 3 41 48 85
100 44 52 84 100 90 106 5 6 28 33 50 59 22 27 45 53 50 59 6 6 46 54 90 106
44 52 85 101 92 108 7 7 29 34 50 60 21 26 40 49 43 52 6 6 166 193 195 229
11 13 27 32 35 41 16 17 214 251 240 284 8 10 25 29 37 41 12 12 30 52 41 89
l20 66 -39 10 c-35 10 -176 49 -599 166 -91 25 -172 47 -180 49 -9 2 -33 -18
-58 -48 -23 -29 -53 -65 -68 -82 -14 -16 -62 -74 -107 -127 -45 -53 -87 -97
-94 -97 -10 -1 -130 31 -468 125 -49 14 -103 29 -120 33 -157 41 -701 195
-707 200 -3 3 -16 65 -27 136 -12 72 -26 155 -31 185 -5 30 -12 73 -16 95 -3
22 -9 43 -12 46 -6 5 -216 64 -262 74 -8 2 -78 21 -155 43 -156 44 -402 112
-407 112 -2 0 -9 -24 -17 -52z m1089 -1467 c461 -124 655 -181 652 -192 -2 -7
-31 -47 -66 -88 -34 -42 -145 -179 -247 -306 -101 -126 -188 -235 -194 -241
-6 -6 -28 -34 -50 -63 -44 -57 -49 -55 -60 29 -4 30 -9 64 -11 75 -2 11 -6 45
-10 75 -3 30 -8 57 -9 60 -2 3 -6 34 -10 70 -3 36 -8 72 -10 80 -3 8 -7 35
-10 60 -3 25 -7 56 -10 70 -2 14 -7 43 -10 65 -5 40 -29 209 -42 294 -4 27 -2
42 3 38 6 -3 43 -15 84 -26z"/>
</g>
</svg>
