<svg width="18" height="19" viewBox="0 0 18 19" fill="none" xmlns="http://www.w3.org/2000/svg">
<path d="M15.6304 2.52133H13.1957V0.652844C13.1957 0.292654 12.913 0 12.5652 0C12.2174 0 11.9348 0.292654 11.9348 0.652844V2.52133H6.06522V0.652844C6.06522 0.292654 5.78261 0 5.43478 0C5.08696 0 4.80435 0.292654 4.80435 0.652844V2.52133H2.36957C1.06522 2.52133 0 3.62441 0 4.97512V16.5462C0 17.8969 1.06522 19 2.36957 19H15.6304C16.9348 19 18 17.8969 18 16.5462V4.97512C18 3.62441 16.9348 2.52133 15.6304 2.52133ZM16.7391 16.5462C16.7391 17.1765 16.2391 17.6943 15.6304 17.6943H2.36957C1.76087 17.6943 1.26087 17.1765 1.26087 16.5462V4.97512C1.26087 4.34479 1.76087 3.82701 2.36957 3.82701H4.80435V4.72749C4.80435 5.08768 5.08696 5.38033 5.43478 5.38033C5.78261 5.38033 6.06522 5.08768 6.06522 4.72749V3.82701H11.913V4.72749C11.913 5.08768 12.1957 5.38033 12.5435 5.38033C12.8913 5.38033 13.1739 5.08768 13.1739 4.72749V3.82701H15.6087C16.2174 3.82701 16.7174 4.34479 16.7174 4.97512V16.5462H16.7391Z" fill="#FF9A01"/>
<path d="M5.69431 14.4527H3.36823C3.0204 14.4527 2.73779 14.7454 2.73779 15.1056C2.73779 15.4658 3.0204 15.7584 3.36823 15.7584H5.69431C6.04214 15.7584 6.32475 15.4658 6.32475 15.1056C6.32475 14.7454 6.04214 14.4527 5.69431 14.4527Z" fill="#FF9A01"/>
<path d="M5.69431 11.4136H3.36823C3.0204 11.4136 2.73779 11.7062 2.73779 12.0664C2.73779 12.4266 3.0204 12.7193 3.36823 12.7193H5.69431C6.04214 12.7193 6.32475 12.4266 6.32475 12.0664C6.32475 11.7062 6.04214 11.4136 5.69431 11.4136Z" fill="#FF9A01"/>
<path d="M10.1721 8.37444H7.82428C7.47646 8.37444 7.19385 8.66709 7.19385 9.02728C7.19385 9.38747 7.47646 9.68013 7.82428 9.68013H10.1504C10.4982 9.68013 10.7808 9.38747 10.7808 9.02728C10.7808 8.66709 10.5199 8.37444 10.1721 8.37444Z" fill="#FF9A01"/>
<path d="M10.1721 14.4527H7.82428C7.47646 14.4527 7.19385 14.7454 7.19385 15.1056C7.19385 15.4658 7.47646 15.7584 7.82428 15.7584H10.1504C10.4982 15.7584 10.7808 15.4658 10.7808 15.1056C10.7808 14.7454 10.5199 14.4527 10.1721 14.4527Z" fill="#FF9A01"/>
<path d="M10.1721 11.4136H7.82428C7.47646 11.4136 7.19385 11.7062 7.19385 12.0664C7.19385 12.4266 7.47646 12.7193 7.82428 12.7193H10.1504C10.4982 12.7193 10.7808 12.4266 10.7808 12.0664C10.7808 11.7062 10.5199 11.4136 10.1721 11.4136Z" fill="#FF9A01"/>
<path d="M14.6284 8.37444H12.3023C11.9545 8.37444 11.6719 8.66709 11.6719 9.02728C11.6719 9.38747 11.9545 9.68013 12.3023 9.68013H14.6284C14.9762 9.68013 15.2588 9.38747 15.2588 9.02728C15.2588 8.66709 14.9762 8.37444 14.6284 8.37444Z" fill="#FF9A01"/>
<path d="M14.6284 14.4527H12.3023C11.9545 14.4527 11.6719 14.7454 11.6719 15.1056C11.6719 15.4658 11.9545 15.7584 12.3023 15.7584H14.6284C14.9762 15.7584 15.2588 15.4658 15.2588 15.1056C15.2588 14.7454 14.9762 14.4527 14.6284 14.4527Z" fill="#FF9A01"/>
<path d="M14.6284 11.4136H12.3023C11.9545 11.4136 11.6719 11.7062 11.6719 12.0664C11.6719 12.4266 11.9545 12.7193 12.3023 12.7193H14.6284C14.9762 12.7193 15.2588 12.4266 15.2588 12.0664C15.2588 11.7062 14.9762 11.4136 14.6284 11.4136Z" fill="#FF9A01"/>
</svg>
