<svg width="13" height="20" viewBox="0 0 13 20" fill="none" xmlns="http://www.w3.org/2000/svg">
<path fill-rule="evenodd" clip-rule="evenodd" d="M11.8529 20H1.14706C0.84284 20 0.551082 19.8802 0.335967 19.6669C0.120852 19.4536 0 19.1643 0 18.8626V1.13736C0 0.835715 0.120852 0.546416 0.335967 0.333119C0.551082 0.119823 0.84284 0 1.14706 0H11.8529C12.1572 0 12.4489 0.119823 12.664 0.333119C12.8792 0.546416 13 0.835715 13 1.13736V18.8626C13 19.1643 12.8792 19.4536 12.664 19.6669C12.4489 19.8802 12.1572 20 11.8529 20ZM6.5 18.8626C6.73947 18.8626 6.97357 18.7922 7.17268 18.6603C7.37179 18.5284 7.52698 18.3409 7.61862 18.1215C7.71026 17.9021 7.73424 17.6608 7.68753 17.4279C7.64081 17.195 7.52549 16.9811 7.35616 16.8132C7.18682 16.6453 6.97109 16.5309 6.73622 16.4846C6.50135 16.4383 6.25789 16.4621 6.03665 16.5529C5.81541 16.6438 5.62631 16.7977 5.49327 16.9951C5.36022 17.1925 5.28922 17.4246 5.28922 17.6621C5.28922 17.9805 5.41678 18.2859 5.64384 18.511C5.87091 18.7362 6.17888 18.8626 6.5 18.8626ZM11.598 3.41209H1.40196V15.4506H11.598V3.41209Z" fill="#FF9A01"/>
</svg>
