<svg width="29" height="29" viewBox="0 0 29 29" fill="none" xmlns="http://www.w3.org/2000/svg">
<path d="M1.06043 1.62563C1.64622 1.03985 2.59597 1.03985 3.18175 1.62563L26.5163 24.9602C27.1021 25.5459 27.1021 26.4957 26.5163 27.0815C25.9305 27.6673 24.9807 27.6673 24.395 27.0815L1.06043 3.74695C0.474647 3.16117 0.474647 2.21142 1.06043 1.62563Z" fill="white"/>
<path d="M1.76769 27.0815C1.18191 26.4957 1.18191 25.5459 1.76769 24.9602L25.1022 1.62563C25.688 1.03984 26.6377 1.03984 27.2235 1.62563C27.8093 2.21142 27.8093 3.16116 27.2235 3.74695L3.88901 27.0815C3.30323 27.6673 2.35348 27.6673 1.76769 27.0815Z" fill="white"/>
</svg>
