<?xml version="1.0" encoding="utf-8"?>
<!-- Generator: Adobe Illustrator 22.1.0, SVG Export Plug-In . SVG Version: 6.00 Build 0)  -->
<svg version="1.1" id="Layer_1" xmlns="http://www.w3.org/2000/svg" xmlns:xlink="http://www.w3.org/1999/xlink" x="0px" y="0px"
	 viewBox="0 0 260 260" style="enable-background:new 0 0 260 260;" xml:space="preserve">
<style type="text/css">
	.st0{fill:#2988CD;}
	.st1{fill:#FF8E02;}
</style>
<path class="st0" d="M98.7,125.1l-30.8-8.5l-1.3,4.6l22.2,135.1l13.5,3.7l88.7-104.6l1.3-4.6l-30.8-8.5l-11.5,13.5l-48.5-13.4
	L98.7,125.1z M104.3,172.1l28.1,7.7l-22.9,28.5L104.3,172.1z"/>
<path class="st1" d="M162.3,135l30.5,9.5l1.4-4.5L176.5,4.2L163.1,0L70.9,101.6l-1.4,4.5l30.5,9.5l11.9-13.1l48,14.9L162.3,135z
	 M158.2,87.8l-27.8-8.7l23.8-27.7L158.2,87.8z"/>
</svg>
