<svg width="28" height="26" viewBox="0 0 28 26" fill="none" xmlns="http://www.w3.org/2000/svg">
<path d="M15.6535 22.0087L0.807685 22.0087C0.361305 22.0087 4.32559e-08 22.3726 3.79086e-08 22.821C3.25614e-08 23.2695 0.361305 23.6334 0.807685 23.6334L15.6535 23.6334C16.0121 24.9932 17.2425 26 18.706 26C20.1695 26 21.3999 24.9932 21.7585 23.6334L27.1921 23.6334C27.6385 23.6334 27.9998 23.2695 27.9998 22.821C27.9998 22.3726 27.6385 22.0087 27.1921 22.0087L21.758 22.0087C21.3994 20.6489 20.169 19.6421 18.7055 19.6421C17.2419 19.6421 16.0121 20.6489 15.6535 22.0087ZM20.2514 22.821C20.2514 23.6783 19.5578 24.3753 18.706 24.3753C17.8542 24.3753 17.1606 23.6783 17.1606 22.821C17.1606 21.9638 17.8542 21.2668 18.706 21.2668C19.5578 21.2668 20.2514 21.9638 20.2514 22.821Z" fill="#FF9A01"/>
<path d="M8.58946 12.1903L0.807685 12.1903C0.361305 12.1903 4.32559e-08 12.5543 3.79086e-08 13.0027C3.25614e-08 13.4511 0.361305 13.815 0.807685 13.815L8.58893 13.815C8.94808 15.1749 10.1806 16.1816 11.6463 16.1816C13.1093 16.1816 14.3402 15.1749 14.6983 13.815L27.1921 13.815C27.6385 13.815 27.9998 13.4511 27.9998 13.0027C27.9998 12.5543 27.6385 12.1903 27.1921 12.1903L14.6988 12.1903C14.3402 10.8305 13.1098 9.82373 11.6468 9.82373C10.1811 9.82373 8.94808 10.8305 8.58946 12.1903ZM13.1922 13.0027C13.1922 13.86 12.4992 14.557 11.6468 14.557C10.7918 14.557 10.0966 13.8605 10.0961 13.0038C10.0961 13.0032 10.0961 13.0027 10.0961 13.0027L10.0961 13.0016C10.0966 12.1449 10.7923 11.4484 11.6468 11.4484C12.4992 11.4484 13.1922 12.1454 13.1922 13.0027Z" fill="#FF9A01"/>
<path d="M2.31634 2.37199L0.808662 2.37199C0.362281 2.37199 0.000976606 2.73592 0.0009766 3.18433C0.000976595 3.63274 0.362281 3.99667 0.808662 3.99667L2.31688 3.99667C2.67549 5.35652 3.90587 6.36328 5.36939 6.36328C6.83292 6.36328 8.06329 5.35652 8.4219 3.99667L27.1925 3.99667C27.6389 3.99667 28.0002 3.63274 28.0002 3.18433C28.0002 2.73592 27.6389 2.37199 27.1925 2.37199L8.42136 2.37199C8.06329 1.00888 6.83238 -4.09265e-05 5.36885 -4.0944e-05C3.90533 -4.09614e-05 2.67388 1.00888 2.31634 2.37199ZM6.91422 3.18433C6.91422 4.04162 6.22069 4.7386 5.36885 4.7386C4.51701 4.7386 3.82348 4.04162 3.82348 3.18433C3.82348 2.32433 4.51702 1.62464 5.36885 1.62464C6.22069 1.62464 6.91422 2.32433 6.91422 3.18433Z" fill="#FF9A01"/>
</svg>
