<svg width="16" height="16" viewBox="0 0 16 16" fill="none" xmlns="http://www.w3.org/2000/svg">
<path fill-rule="evenodd" clip-rule="evenodd" d="M9.35024 15.4591C2.82557 16.0735 -0.0960068 11.2079 0.559423 6.72901C0.194639 6.00884 0.00309069 5.2136 0 4.40651C0.0331863 1.9661 2.09312 -0.0467141 4.39483 0.00146666C5.119 0.00146666 5.21973 -0.0516862 6.63252 0.481971C13.0647 -0.213985 16.2115 4.94869 15.4233 9.37232C17.5781 13.3827 13.2816 17.5021 9.35024 15.4591ZM7.67197 4.6467C9.21632 4.69855 9.6679 5.67259 10.4691 6.00807C11.0985 6.07745 11.4374 5.35154 11.4279 5.28714C11.9234 3.31765 5.71397 1.3626 4.236 5.12697C3.53553 7.49457 6.00791 8.39142 7.67197 8.65103C8.86193 8.76787 9.72477 9.20091 9.73781 9.86324C9.6904 10.5047 9.21631 11.1973 7.40173 10.9935C6.5377 10.9168 5.83013 9.5944 5.27426 9.45199C4.47423 8.88294 2.47239 11.1286 6.55312 12.4154C11.5714 13.9208 14.967 7.48191 7.83198 6.72877C4.88077 6.17037 6.51045 4.59331 7.67197 4.6467Z" fill="#15A5F2"/>
</svg>
