<svg width="16" height="16" viewBox="0 0 16 16" fill="none" xmlns="http://www.w3.org/2000/svg">
<rect width="16" height="16" rx="5" fill="#AA5ABE"/>
<path fill-rule="evenodd" clip-rule="evenodd" d="M12.8836 7.84763C12.8836 8.04144 12.8102 8.11178 12.6706 8.14107C12.4423 8.14107 12.3536 8.04058 12.3536 7.90419C12.3536 7.90419 12.294 5.85883 11.1788 4.76135C11.1797 4.76021 11.1806 4.75915 11.1817 4.75819C10.0665 3.66445 7.99162 3.60724 7.99162 3.60724C7.85277 3.60724 7.751 3.52009 7.75173 3.29477C7.78154 3.15781 7.85277 3.08481 8.04979 3.08466C8.04979 3.08466 10.017 2.90657 11.5437 4.40933C11.5423 4.41055 11.5416 4.41177 11.5401 4.41299C13.0632 5.91575 12.8836 7.84763 12.8836 7.84763ZM8.59867 5.72395C8.59932 5.68892 8.60704 5.65436 8.62138 5.6223C8.63571 5.59025 8.65639 5.56134 8.68218 5.53728C8.70798 5.51321 8.73838 5.49447 8.7716 5.48215C8.80483 5.46983 8.8402 5.46418 8.87566 5.46553C9.08717 5.4504 9.29945 5.48153 9.49737 5.55671C9.6953 5.63189 9.87398 5.74926 10.0207 5.90046C9.87819 6.04144 9.82076 6.09801 9.68917 6.22743C9.8193 6.0993 9.87674 6.04273 10.0192 5.9029C10.1727 6.04681 10.2919 6.22253 10.3684 6.4174C10.4448 6.61227 10.4765 6.82145 10.4612 7.02988C10.4625 7.06484 10.4568 7.09971 10.4442 7.13244C10.4317 7.16517 10.4127 7.19511 10.3884 7.2205C10.364 7.2459 10.3347 7.26625 10.3023 7.28035C10.2699 7.29446 10.2349 7.30204 10.1995 7.30265C10.057 7.31701 9.93199 7.15191 9.93199 7.03426C9.93199 7.03426 9.88474 6.52016 9.63828 6.27754L9.64047 6.27588C9.39401 6.03326 8.8713 5.98718 8.8713 5.98718C8.75134 5.98725 8.58413 5.86421 8.59867 5.72395ZM11.6419 7.42713C11.6419 7.49595 11.6142 7.56195 11.5649 7.61061C11.5156 7.65928 11.4488 7.68662 11.3791 7.68662C11.3094 7.68662 11.2425 7.65928 11.1932 7.61061C11.1439 7.56195 11.1163 7.49595 11.1163 7.42713C11.1163 7.42713 11.0312 6.13297 10.4147 5.52095C9.79531 4.9108 8.47509 4.82847 8.47509 4.82847C8.44072 4.82842 8.4067 4.82169 8.37497 4.80866C8.34323 4.79563 8.3144 4.77655 8.29013 4.75253C8.26586 4.7285 8.24662 4.69998 8.23351 4.66861C8.2204 4.63724 8.21369 4.60363 8.21374 4.56969C8.21378 4.53576 8.22059 4.50216 8.23379 4.47083C8.24699 4.4395 8.2663 4.41103 8.29064 4.38707C8.31498 4.36311 8.34385 4.34411 8.37562 4.33117C8.40739 4.31823 8.44145 4.31159 8.47582 4.31164C8.8984 4.28233 9.32247 4.34243 9.71964 4.48792C10.1168 4.63341 10.478 4.86094 10.7789 5.15529C10.7792 5.15607 10.7797 5.15673 10.7804 5.15716L10.7826 5.15895C11.0816 5.45448 11.313 5.80983 11.4612 6.20108C11.6094 6.59233 11.6711 7.01039 11.6419 7.42713ZM9.27187 9.96147C9.32131 9.89356 9.60411 9.4956 9.75823 9.42425C9.86136 9.3668 9.97686 9.3344 10.0952 9.32971C10.2135 9.32501 10.3312 9.34817 10.4387 9.39726C10.8138 9.53235 11.6012 10.0754 11.6302 10.1105C11.6506 10.1253 12.7018 10.8882 12.7018 11.2269C12.7491 11.3209 12.7586 11.709 12.4976 12.149C12.3956 12.3621 12.2508 12.5525 12.072 12.7086C11.8931 12.8646 11.684 12.9831 11.4572 13.0568C11.4274 13.0763 11.053 13.2071 10.4103 13.0594C10.0051 12.916 9.60846 12.7497 9.22244 12.5615C7.20721 11.6288 5.7423 10.1496 5.74521 10.1445C5.74696 10.1424 5.74891 10.1404 5.75103 10.1386C5.77648 10.1137 5.80264 10.0877 5.83026 10.0607L5.84336 10.0475C5.85281 10.0384 5.86153 10.0294 5.87098 10.0202C5.89279 9.99922 5.91388 9.97783 5.93642 9.95615C5.91388 9.97769 5.89279 9.99922 5.87098 10.0202C5.86153 10.0294 5.85281 10.0384 5.84336 10.0475L5.83026 10.0607C5.80264 10.0877 5.77575 10.1137 5.75103 10.1386C5.74843 10.1408 5.74599 10.1432 5.74376 10.1458C5.73867 10.1482 4.23524 8.70593 3.28723 6.72179C3.09624 6.34179 2.9273 5.95135 2.78124 5.55239C2.63148 4.91956 2.76453 4.55089 2.78416 4.52181C2.85949 4.29821 2.98012 4.09208 3.13873 3.91599C3.29733 3.7399 3.49059 3.59753 3.70671 3.49755C4.15381 3.24072 4.54786 3.24983 4.64382 3.29656C4.98769 3.29656 5.76266 4.33123 5.77792 4.35126C5.81355 4.37997 6.36533 5.15479 6.50274 5.52483C6.55279 5.63042 6.57641 5.74635 6.5716 5.86284C6.56679 5.97933 6.53371 6.09297 6.47512 6.1942C6.40315 6.34659 5.99821 6.62446 5.92987 6.67305C5.81355 6.76874 5.59255 6.98588 5.60272 7.32383C5.65725 8.18874 6.68376 9.22111 6.68376 9.22111C6.68382 9.22093 6.68392 9.22077 6.68404 9.22063C6.68417 9.2205 6.68431 9.22039 6.68449 9.22031C6.68449 9.22031 7.73282 10.2301 8.61103 10.2838C8.7388 10.2835 8.8648 10.2543 8.97935 10.1984C9.09391 10.1425 9.19397 10.0615 9.27187 9.96147ZM6.16469 9.73076C6.19159 9.70485 6.21704 9.67915 6.24321 9.65381C6.21704 9.67915 6.19159 9.70456 6.16469 9.73076ZM6.31446 9.58339C6.33554 9.56257 6.35661 9.54219 6.37697 9.52238C6.35661 9.54219 6.33554 9.56257 6.31446 9.58339ZM6.47221 9.42856C6.48093 9.41965 6.48966 9.41097 6.49839 9.4025C6.5042 9.39719 6.50929 9.39202 6.51438 9.38685C6.51947 9.38168 6.52674 9.37472 6.53255 9.36883C6.52674 9.37472 6.5202 9.38075 6.51438 9.38685C6.50856 9.39295 6.5042 9.39719 6.49839 9.4025C6.48966 9.41097 6.48093 9.41965 6.47221 9.42856ZM6.60234 9.29992C6.61034 9.29239 6.61761 9.28557 6.62416 9.27839C6.61761 9.28528 6.61034 9.29239 6.60234 9.29992ZM6.6278 9.27501C6.63361 9.26963 6.6387 9.26461 6.64306 9.26001C6.6387 9.26461 6.63361 9.26963 6.6278 9.27501ZM6.65978 9.24357C6.66414 9.23934 6.66777 9.23575 6.67068 9.23259C6.66777 9.23575 6.66414 9.23941 6.65978 9.24357ZM6.67504 9.22843C6.6776 9.22617 6.68003 9.22377 6.68232 9.22125C6.68087 9.22276 6.67868 9.2252 6.67504 9.22843Z" fill="white"/>
</svg>
