<?xml version="1.0" encoding="UTF-8"?>
<svg xmlns="http://www.w3.org/2000/svg" xmlns:xlink="http://www.w3.org/1999/xlink" viewBox="0 0 48 48" version="1.1" width="50px" height="50px">
<g id="surface1">
<path style=" fill:#37474F;" d="M 19.039063 4.96875 C 17.839844 4.695313 16.855469 4.804688 15.820313 5.347656 C 14.675781 6.058594 14.019531 7.152344 13.746094 8.679688 C 13.472656 10.261719 13.746094 11.789063 14.566406 13.320313 L 14.945313 13.867188 L 13.636719 13.429688 C 12 13.046875 10.46875 13.265625 8.941406 14.082031 C 7.359375 14.902344 6.375 16.050781 5.722656 17.632813 C 5.121094 19.160156 5.175781 20.636719 5.9375 22 C 6.265625 22.601563 6.757813 23.089844 7.195313 23.417969 C 7.847656 24.074219 8.667969 24.457031 9.652344 24.617188 L 10.03125 24.726563 L 9.214844 25.4375 C 8.449219 26.09375 8.011719 26.910156 7.738281 27.730469 C 7.46875 28.710938 7.574219 29.695313 8.121094 30.625 C 8.394531 31.0625 8.667969 31.441406 9.105469 31.714844 C 9.539063 32.097656 10.085938 32.371094 10.742188 32.425781 C 11.941406 32.699219 13.199219 32.699219 14.5625 32.261719 L 13.578125 33.898438 L 13.308594 34.609375 C 12.761719 36.355469 12.925781 37.886719 13.742188 39.46875 C 14.125 40.066406 14.5625 40.613281 15 41.105469 C 15.65625 41.707031 16.472656 42.085938 17.457031 42.359375 C 19.09375 42.796875 20.734375 42.742188 22.316406 41.925781 C 23.84375 41.105469 24.828125 39.792969 25.320313 38.15625 L 25.375 37.828125 C 26.410156 38.976563 27.394531 39.738281 28.484375 40.011719 C 29.578125 40.339844 30.667969 40.285156 31.652344 39.632813 C 32.578125 39.085938 33.234375 38.15625 33.5625 37.011719 C 33.835938 35.808594 33.835938 34.609375 33.5625 33.242188 C 34.109375 33.625 34.652344 33.898438 35.308594 34.0625 C 37.054688 34.605469 38.582031 34.550781 40.113281 33.734375 C 41.585938 32.914063 42.570313 31.605469 43.0625 29.910156 C 43.496094 28.273438 43.386719 26.691406 42.570313 25.164063 L 42.296875 24.726563 C 41.859375 24.070313 41.421875 23.414063 40.769531 22.980469 C 40.222656 22.597656 39.566406 22.324219 38.96875 22.050781 C 40.660156 21.230469 41.859375 20.085938 42.40625 18.613281 C 42.789063 17.410156 42.679688 16.429688 42.132813 15.445313 L 42.132813 15.335938 C 41.480469 14.242188 40.605469 13.535156 39.242188 13.152344 C 38.421875 12.988281 37.492188 12.988281 36.675781 13.042969 L 34.871094 13.425781 L 35.472656 12.0625 C 36.019531 10.316406 35.855469 8.621094 34.929688 7.039063 L 34.765625 6.769531 C 33.945313 5.402344 32.742188 4.585938 31.105469 4.148438 C 29.414063 3.710938 27.832031 3.875 26.304688 4.691406 C 24.773438 5.511719 23.683594 6.769531 23.191406 8.40625 L 23.191406 8.515625 L 23.136719 8.898438 L 22.917969 8.515625 L 22.371094 7.53125 C 21.496094 6.167969 20.40625 5.347656 19.039063 4.96875 Z M 32.960938 8.242188 C 33.234375 8.789063 33.398438 9.441406 33.398438 10.152344 L 33.234375 11.351563 C 33.015625 11.953125 32.742188 12.5 32.417969 12.992188 L 27.503906 18.996094 C 27.011719 18.613281 26.464844 18.34375 25.921875 18.066406 L 25.371094 11.898438 L 25.316406 9.714844 L 25.371094 9.171875 C 25.644531 8.078125 26.410156 7.261719 27.394531 6.714844 C 28.375 6.167969 29.46875 6.058594 30.503906 6.441406 C 31.652344 6.714844 32.472656 7.3125 32.960938 8.242188 Z M 16.039063 9.335938 C 16.09375 8.351563 16.476563 7.695313 17.128906 7.3125 C 17.457031 7.042969 17.949219 7.042969 18.382813 7.257813 C 19.367188 7.53125 20.183594 8.242188 20.839844 9.605469 C 21.113281 10.152344 21.386719 10.699219 21.496094 11.355469 L 22.589844 17.796875 L 21.769531 18.066406 L 16.910156 12.773438 L 16.636719 12.226563 C 16.203125 11.246094 15.929688 10.316406 16.039063 9.335938 Z M 13.089844 15.722656 L 14.566406 16.324219 L 19.367188 19.816406 C 18.933594 20.363281 18.660156 20.90625 18.496094 21.453125 L 10.636719 22.4375 L 10.089844 22.328125 C 9.105469 22.164063 8.449219 21.726563 8.015625 20.910156 C 7.578125 20.089844 7.578125 19.269531 7.90625 18.453125 C 8.289063 17.414063 8.996094 16.597656 10.035156 16.160156 C 11.015625 15.613281 11.996094 15.449219 13.089844 15.722656 Z M 18.277344 24.617188 L 18.65625 25.710938 L 18.820313 26.09375 C 18.003906 26.804688 17.402344 27.457031 16.746094 28.058594 L 15.109375 29.425781 L 14.671875 29.695313 C 13.636719 30.1875 12.761719 30.351563 11.835938 30.242188 C 11.015625 30.1875 10.359375 29.914063 10.085938 29.425781 L 9.921875 28.824219 L 10.03125 28.332031 C 10.304688 27.511719 11.015625 26.695313 12.269531 26.09375 C 12.925781 25.820313 13.472656 25.546875 13.910156 25.4375 Z M 35.308594 15.773438 C 36.289063 15.339844 37.21875 15.230469 38.203125 15.339844 C 39.132813 15.445313 39.785156 15.882813 40.113281 16.539063 L 40.332031 17.246094 L 40.222656 17.792969 C 39.839844 18.777344 39.023438 19.539063 37.65625 20.140625 C 37.113281 20.414063 36.511719 20.523438 35.855469 20.632813 L 29.140625 21.449219 L 29.03125 21.070313 L 28.925781 20.90625 L 29.144531 20.632813 L 34.65625 16.046875 Z M 21.386719 20.960938 C 22.042969 20.359375 22.914063 19.980469 23.953125 19.980469 C 24.9375 19.980469 25.863281 20.363281 26.464844 20.960938 C 27.230469 21.726563 27.558594 22.546875 27.558594 23.527344 C 27.558594 24.507813 27.230469 25.4375 26.464844 26.09375 C 25.757813 26.800781 24.9375 27.183594 23.953125 27.183594 C 22.914063 27.183594 22.042969 26.800781 21.386719 26.09375 C 20.679688 25.4375 20.296875 24.507813 20.296875 23.527344 C 20.296875 22.546875 20.679688 21.726563 21.386719 20.960938 Z M 22.644531 28.878906 C 22.753906 30.734375 22.917969 32.699219 23.191406 34.828125 L 23.191406 37.011719 L 23.136719 37.558594 C 22.753906 38.539063 22.097656 39.359375 21.113281 39.796875 C 20.132813 40.34375 19.09375 40.449219 18.113281 40.179688 C 17.019531 39.90625 16.199219 39.253906 15.765625 38.378906 C 15.492188 37.832031 15.273438 37.175781 15.273438 36.523438 L 15.546875 35.265625 C 15.65625 34.722656 15.929688 34.175781 16.363281 33.738281 L 20.949219 28.277344 C 21.496094 28.550781 22.042969 28.824219 22.644531 28.878906 Z M 26.847656 28.167969 L 29.140625 30.515625 L 30.558594 32.261719 L 30.832031 32.808594 C 31.324219 33.738281 31.597656 34.609375 31.488281 35.648438 C 31.378906 36.632813 31.050781 37.339844 30.394531 37.613281 C 30.011719 37.886719 29.578125 37.886719 29.140625 37.832031 C 28.101563 37.558594 27.285156 36.738281 26.683594 35.429688 L 26.027344 33.628906 L 25.210938 28.878906 L 26.140625 28.550781 Z M 29.304688 24.78125 L 35.472656 24.238281 L 37.65625 24.183594 L 38.203125 24.238281 C 39.023438 24.511719 39.785156 25.003906 40.222656 25.820313 C 40.769531 26.421875 41.042969 27.238281 41.042969 28.167969 L 40.878906 29.261719 C 40.605469 30.351563 39.949219 31.171875 39.023438 31.609375 C 38.039063 32.152344 37.058594 32.261719 35.964844 31.878906 C 35.308594 31.71875 34.871094 31.441406 34.492188 31.007813 L 28.757813 26.257813 L 29.140625 25.441406 Z "/>
<path style=" fill:#8BC34A;" d="M 32.960938 8.242188 C 33.234375 8.789063 33.398438 9.441406 33.398438 10.152344 L 33.234375 11.351563 C 33.015625 11.953125 32.742188 12.5 32.417969 12.992188 L 27.503906 18.996094 C 27.011719 18.613281 26.464844 18.34375 25.921875 18.066406 L 25.371094 11.898438 L 25.316406 9.714844 L 25.371094 9.171875 C 25.644531 8.078125 26.410156 7.261719 27.394531 6.714844 C 28.375 6.167969 29.46875 6.058594 30.503906 6.441406 C 31.652344 6.714844 32.472656 7.3125 32.960938 8.242188 Z M 16.039063 9.335938 C 16.09375 8.351563 16.476563 7.695313 17.128906 7.3125 C 17.457031 7.042969 17.949219 7.042969 18.382813 7.257813 C 19.367188 7.53125 20.183594 8.242188 20.839844 9.605469 C 21.113281 10.152344 21.386719 10.699219 21.496094 11.355469 L 22.589844 17.796875 L 21.769531 18.066406 L 16.910156 12.773438 L 16.636719 12.226563 C 16.203125 11.246094 15.929688 10.316406 16.039063 9.335938 Z M 13.089844 15.722656 L 14.566406 16.324219 L 19.367188 19.816406 C 18.933594 20.363281 18.660156 20.90625 18.496094 21.453125 L 10.636719 22.4375 L 10.089844 22.328125 C 9.105469 22.164063 8.449219 21.726563 8.015625 20.910156 C 7.578125 20.089844 7.578125 19.269531 7.90625 18.453125 C 8.289063 17.414063 8.996094 16.597656 10.035156 16.160156 C 11.015625 15.613281 11.996094 15.449219 13.089844 15.722656 Z M 35.308594 15.773438 C 36.289063 15.339844 37.21875 15.230469 38.203125 15.339844 C 39.132813 15.445313 39.785156 15.882813 40.113281 16.539063 L 40.332031 17.246094 L 40.222656 17.792969 C 39.839844 18.777344 39.023438 19.539063 37.65625 20.140625 C 37.113281 20.414063 36.511719 20.523438 35.855469 20.632813 L 29.140625 21.449219 L 29.03125 21.070313 L 28.925781 20.90625 L 29.144531 20.632813 L 34.65625 16.046875 Z M 22.644531 28.878906 C 22.753906 30.734375 22.917969 32.699219 23.191406 34.828125 L 23.191406 37.011719 L 23.136719 37.558594 C 22.753906 38.539063 22.097656 39.359375 21.113281 39.796875 C 20.132813 40.34375 19.09375 40.449219 18.113281 40.179688 C 17.019531 39.90625 16.199219 39.253906 15.765625 38.378906 C 15.492188 37.832031 15.273438 37.175781 15.273438 36.523438 L 15.546875 35.265625 C 15.65625 34.722656 15.929688 34.175781 16.363281 33.738281 L 20.949219 28.277344 C 21.496094 28.550781 22.042969 28.824219 22.644531 28.878906 Z M 26.847656 28.167969 L 29.140625 30.515625 L 30.558594 32.261719 L 30.832031 32.808594 C 31.324219 33.738281 31.597656 34.609375 31.488281 35.648438 C 31.378906 36.632813 31.050781 37.339844 30.394531 37.613281 C 30.011719 37.886719 29.578125 37.886719 29.140625 37.832031 C 28.101563 37.558594 27.285156 36.738281 26.683594 35.429688 L 26.027344 33.628906 L 25.210938 28.878906 L 26.140625 28.550781 Z M 29.304688 24.78125 L 35.472656 24.238281 L 37.65625 24.183594 L 38.203125 24.238281 C 39.023438 24.511719 39.785156 25.003906 40.222656 25.820313 C 40.769531 26.421875 41.042969 27.238281 41.042969 28.167969 L 40.878906 29.261719 C 40.605469 30.351563 39.949219 31.171875 39.023438 31.609375 C 38.039063 32.152344 37.058594 32.261719 35.964844 31.878906 C 35.308594 31.71875 34.871094 31.441406 34.492188 31.007813 L 28.757813 26.257813 L 29.140625 25.441406 Z "/>
<path style=" fill:#FF3D00;" d="M 18.277344 24.617188 L 18.65625 25.710938 L 18.820313 26.09375 C 18.003906 26.804688 17.402344 27.457031 16.746094 28.058594 L 15.109375 29.425781 L 14.671875 29.695313 C 13.636719 30.1875 12.761719 30.351563 11.835938 30.242188 C 11.015625 30.1875 10.359375 29.914063 10.085938 29.425781 L 9.921875 28.824219 L 10.03125 28.332031 C 10.304688 27.511719 11.015625 26.695313 12.269531 26.09375 C 12.925781 25.820313 13.472656 25.546875 13.910156 25.4375 Z "/>
<path style=" fill:#FFEB3B;" d="M 21.386719 20.960938 C 22.042969 20.359375 22.914063 19.980469 23.953125 19.980469 C 24.9375 19.980469 25.863281 20.363281 26.464844 20.960938 C 27.230469 21.726563 27.558594 22.546875 27.558594 23.527344 C 27.558594 24.507813 27.230469 25.4375 26.464844 26.09375 C 25.757813 26.800781 24.9375 27.183594 23.953125 27.183594 C 22.914063 27.183594 22.042969 26.800781 21.386719 26.09375 C 20.679688 25.4375 20.296875 24.507813 20.296875 23.527344 C 20.296875 22.546875 20.679688 21.726563 21.386719 20.960938 Z "/>
</g>
</svg>
