<svg width="16" height="16" viewBox="0 0 16 16" fill="none" xmlns="http://www.w3.org/2000/svg">
<rect width="16" height="16" rx="5" fill="#00C232"/>
<path fill-rule="evenodd" clip-rule="evenodd" d="M5.8218 7.06184C5.80475 6.83745 5.84918 6.61265 5.95046 6.41107C5.98132 6.33076 6.0242 6.25549 6.07768 6.18775C6.17315 6.06024 6.30072 5.95958 6.44773 5.89574C6.44773 5.89574 6.88466 5.85339 6.92246 5.91139C7.12495 6.25845 7.29433 6.62333 7.42845 7.00133C7.49533 7.24855 7.1442 7.53072 7.1442 7.53072C7.1442 7.53072 6.92174 7.64278 7.1442 7.92C7.30996 8.12695 7.59203 8.48758 7.76142 8.62074C7.94035 8.76531 8.13071 8.89554 8.33066 9.01016C8.74433 9.23663 8.82139 9.21251 8.82139 9.21251C8.82139 9.21251 8.89772 9.2433 9.10564 8.96343C9.21687 8.81484 9.33828 8.6404 9.45387 8.60523C9.58764 8.56482 10.6679 9.17741 10.6251 9.13462C10.7007 9.20992 10.641 9.45133 10.641 9.45133C10.641 9.45133 10.6643 9.72137 10.2528 10.0328C9.98167 10.2381 9.5331 10.287 9.5331 10.287C9.25068 10.267 8.9731 10.2041 8.71016 10.1004C8.27178 9.93722 7.80867 9.7999 7.20744 9.2596C6.78978 8.88513 6.42694 8.4551 6.12932 7.98188C5.81307 7.44351 5.8218 7.06184 5.8218 7.06184ZM8.18017 12.8407C7.34193 12.8419 6.51774 12.6281 5.78834 12.2203L3.14062 13.0587L4.01084 10.5057C3.46167 9.59765 3.23225 8.53567 3.35832 7.48536C3.48438 6.43506 3.95886 5.45545 4.70779 4.69927C5.45671 3.94308 6.438 3.45282 7.49865 3.30491C8.5593 3.15699 9.63972 3.35975 10.5715 3.88156C11.5032 4.40337 12.2339 5.21491 12.6496 6.18966C13.0653 7.16441 13.1428 8.24759 12.8698 9.27033C12.5968 10.2931 11.9888 11.1979 11.1405 11.8437C10.2922 12.4896 9.25135 12.8401 8.18017 12.8407ZM8.17217 4.07384C7.42719 4.0711 6.6959 4.27126 6.05866 4.65229C5.42142 5.03332 4.90293 5.58047 4.5602 6.23358C4.21748 6.8867 4.06379 7.62048 4.11604 8.35424C4.16828 9.08801 4.42444 9.79334 4.85634 10.3927L4.4703 11.5484L4.47176 11.5495L4.35907 11.8754L5.0141 11.6834C5.01305 11.6822 5.01182 11.6811 5.01046 11.6802L5.90903 11.401C6.43514 11.7519 7.0373 11.9761 7.6671 12.0554C8.2969 12.1347 8.93676 12.067 9.53525 11.8578C10.1337 11.6485 10.6741 11.3035 11.113 10.8505C11.5519 10.3975 11.877 9.84917 12.0622 9.24955C12.2474 8.64992 12.2876 8.01576 12.1794 7.39803C12.0712 6.78031 11.8178 6.19627 11.4394 5.69285C11.061 5.18944 10.5683 4.78071 10.0009 4.49952C9.43343 4.21833 8.80707 4.07253 8.17217 4.07384Z" fill="white"/>
</svg>
