<svg width="12" height="13" viewBox="0 0 12 13" fill="none" xmlns="http://www.w3.org/2000/svg">
<path d="M11.0631 0.937109C9.81329 -0.31237 7.78707 -0.31237 6.53757 0.937109L4.75194 2.72197C4.8933 2.7066 5.03613 2.69999 5.17969 2.69999C5.63158 2.69999 6.071 2.77178 6.48701 2.91018L7.49885 1.89873C7.84637 1.55084 8.30852 1.35969 8.79998 1.35969C9.29148 1.35969 9.75364 1.55084 10.1012 1.89873C10.4487 2.24588 10.6398 2.7073 10.6398 3.19946C10.6398 3.6909 10.4487 4.15304 10.1012 4.5002L8.12144 6.47988C7.77394 6.82778 7.31176 7.01889 6.8203 7.01889C6.3281 7.01889 5.86669 6.82778 5.51882 6.47988C5.34962 6.31141 5.2178 6.11512 5.12698 5.90125C4.90138 5.9137 4.69046 6.00745 4.52932 6.16856L4.00198 6.69658C4.14627 6.96389 4.33157 7.21584 4.55717 7.4422C5.80667 8.69172 7.83324 8.69172 9.08309 7.4422L11.0632 5.4618C12.3123 4.21239 12.3123 2.18659 11.0631 0.937109Z" fill="#FF9A01"/>
<path d="M6.8416 9.30041C6.38896 9.30041 5.94513 9.22717 5.51963 9.08289L4.50084 10.1017C4.15367 10.4496 3.69153 10.6407 3.20008 10.6407C2.70862 10.6407 2.24722 10.4496 1.8993 10.1017C1.5514 9.75452 1.36024 9.29242 1.36024 8.80096C1.36024 8.3095 1.5514 7.84733 1.8993 7.4995L3.87902 5.51985C4.22691 5.17269 4.68834 4.98153 5.1798 4.98153C5.67198 4.98153 6.13341 5.17269 6.48091 5.51985C6.65013 5.68902 6.78226 5.88531 6.8735 6.09915C7.09982 6.08743 7.31112 5.99296 7.47226 5.83185L7.99887 5.30452C7.85458 5.03645 7.6689 4.78452 7.44296 4.5582C6.19346 3.30872 4.16689 3.30872 2.91739 4.5582L0.937669 6.5386C-0.312556 7.78813 -0.312556 9.81386 0.937669 11.0641C2.18717 12.3136 4.21304 12.3136 5.46251 11.0641L7.24519 9.28143C7.11227 9.29383 6.97787 9.30048 6.84235 9.30048L6.8416 9.30041Z" fill="#FF9A01"/>
</svg>
