<svg width="20" height="20" viewBox="0 0 20 20" fill="none" xmlns="http://www.w3.org/2000/svg">
<path d="M20 10C20 4.48186 15.5181 0 10 0C4.48186 0 0 4.48186 0 10C0 15.5181 4.48186 20 10 20C15.5181 20 20 15.5181 20 10ZM1.08808 10C1.08808 5.10363 5.07772 1.08808 10 1.08808C14.9223 1.08808 18.9119 5.10363 18.9119 10C18.9119 14.8964 14.8964 18.9119 10 18.9119C5.10363 18.9119 1.08808 14.8964 1.08808 10Z" fill="#F58D8D"/>
<path d="M10 14.509C10.5581 14.509 11.0104 14.0567 11.0104 13.4986C11.0104 12.9406 10.5581 12.4883 10 12.4883C9.44204 12.4883 8.98969 12.9406 8.98969 13.4986C8.98969 14.0567 9.44204 14.509 10 14.509Z" fill="#F58D8D"/>
<path d="M10.0001 11.3722C10.596 11.3722 11.0882 10.88 11.0882 10.2842V5.93183C11.0882 5.33598 10.596 4.84375 10.0001 4.84375C9.40428 4.84375 8.91205 5.33598 8.91205 5.93183V10.2583C8.91205 10.88 9.40428 11.3722 10.0001 11.3722Z" fill="#F58D8D"/>
</svg>
