<svg width="14" height="14" viewBox="0 0 14 14" fill="none" xmlns="http://www.w3.org/2000/svg">
<path fill-rule="evenodd" clip-rule="evenodd" d="M2.07332 3.80228C2.07332 3.80228 2.04937 3.1743 2.44795 2.36171C2.72911 1.78702 3.82363 1.46956 3.82363 1.46956C3.82363 1.46956 4.29172 1.35061 5.23254 2.25898C5.6065 2.60514 5.84431 3.07364 5.90301 3.57983C5.93699 4.04174 4.95214 5.02658 4.95214 5.02658C5.02837 5.59204 5.26446 6.12398 5.63266 6.55985C6.01964 7.01018 6.68624 7.71231 7.03615 8.04059C7.33585 8.32175 7.6703 8.68866 8.11522 8.98373C8.99038 9.56382 9.20049 9.51129 9.20049 9.51129C9.20049 9.51129 10.4472 8.46697 10.8203 8.50327C11.1037 8.53185 11.5054 8.71877 12.0191 9.15674C12.4007 9.48116 12.6447 9.7268 12.8363 10.0543C12.9045 10.1674 12.9582 10.2886 12.9962 10.415C12.9962 10.415 13.0464 10.9333 12.2415 11.7583C11.4405 12.5778 10.3359 12.3631 10.3359 12.3631C10.3359 12.3631 9.70101 12.2689 8.66209 11.7799C7.51182 11.219 6.46378 10.4691 5.56158 9.56151C4.71964 8.69176 3.61585 7.36085 3.07901 6.43471C2.40314 5.27066 2.07332 3.80228 2.07332 3.80228Z" fill="#FF9A01"/>
</svg>
