<svg width="13" height="12" viewBox="0 0 13 12" fill="none" xmlns="http://www.w3.org/2000/svg">
<path d="M6.46865 8.99097C7.70099 8.99097 8.69999 7.96464 8.69999 6.69861C8.69999 5.43257 7.70099 4.40625 6.46865 4.40625C5.23631 4.40625 4.2373 5.43257 4.2373 6.69861C4.2373 7.96464 5.23631 8.99097 6.46865 8.99097Z" fill="#FF9A01"/>
<path d="M10.3224 1.71429H9.87612C9.83731 1.71429 9.77911 1.69435 9.7403 1.65449L8.34328 0.299003C8.14925 0.119601 7.89702 0 7.62537 0H6.59701H6.40299H5.37463C5.10298 0 4.85075 0.0996678 4.65672 0.299003L3.2597 1.65449C3.2209 1.69435 3.18209 1.71429 3.12388 1.71429H2.67761C1.20298 1.71429 0 2.95017 0 4.46512V9.44851C0 10.8638 1.10597 12 2.48358 12H6.40299H6.59701H10.5164C11.894 12 13 10.8638 13 9.44851V4.46512C12.9806 2.95017 11.7776 1.71429 10.3224 1.71429ZM6.4806 10.3854C4.50149 10.3854 2.89104 8.7309 2.89104 6.69767C2.89104 4.66445 4.50149 3.00997 6.4806 3.00997C8.4597 3.00997 10.0701 4.66445 10.0701 6.69767C10.0701 8.7309 8.4597 10.3854 6.4806 10.3854Z" fill="#FF9A01"/>
</svg>
