<svg width="18" height="18" viewBox="0 0 18 18" fill="none" xmlns="http://www.w3.org/2000/svg">
<path d="M13.9075 12.7921C15.1786 11.2349 15.8027 9.24894 15.6508 7.24464C15.499 5.24034 14.5828 3.37102 13.0917 2.02312C11.6006 0.675231 9.64852 -0.048164 7.63912 0.00249151C5.62972 0.053147 3.71661 0.873979 2.29529 2.29529C0.873979 3.71661 0.053147 5.62972 0.00249151 7.63912C-0.048164 9.64852 0.675231 11.6006 2.02312 13.0917C3.37102 14.5828 5.24034 15.499 7.24464 15.6508C9.24894 15.8027 11.2349 15.1786 12.7921 13.9075L16.0887 17.1963C16.2372 17.3347 16.4337 17.4101 16.6368 17.4065C16.8398 17.4029 17.0335 17.3206 17.1771 17.1771C17.3206 17.0335 17.4029 16.8398 17.4065 16.6368C17.4101 16.4337 17.3347 16.2372 17.1963 16.0887L13.9075 12.7921ZM1.59619 7.84719C1.59701 6.82176 1.85009 5.81227 2.33311 4.90773C2.81613 4.00318 3.51426 3.23135 4.36596 2.66028C5.21766 2.08921 6.19677 1.73643 7.21698 1.63305C8.23719 1.52967 9.26716 1.67886 10.2161 2.06746C11.1651 2.45607 12.0038 3.07216 12.6585 3.86142C13.3132 4.65068 13.7636 5.58887 13.9701 6.5933C14.1766 7.59772 14.1329 8.63752 13.8427 9.62105C13.5525 10.6046 13.0249 11.5016 12.3062 12.2331L12.2723 12.2618L12.2435 12.2958C11.3668 13.1608 10.254 13.7474 9.04488 13.982C7.83579 14.2165 6.58434 14.0885 5.44777 13.614C4.31121 13.1395 3.34023 12.3397 2.65681 11.315C1.9734 10.2904 1.60804 9.08666 1.60664 7.85503L1.59619 7.84719Z" fill="white"/>
</svg>
