<svg width="14" height="13" viewBox="0 0 14 13" fill="none" xmlns="http://www.w3.org/2000/svg">
<path fill-rule="evenodd" clip-rule="evenodd" d="M4.46428 12.0037C2.51253 12.0037 0.865273 11.2177 0.865273 9.9586C0.865273 8.68373 2.36857 7.4506 4.32 7.4506L4.92801 7.44449C4.78658 7.32467 4.67132 7.17764 4.58925 7.01236C4.50717 6.84707 4.46001 6.667 4.45063 6.48312C4.4569 6.25501 4.51817 6.03168 4.62937 5.8317L4.3044 5.84391C2.70036 5.84391 1.62504 4.71229 1.62504 3.31182C1.62504 1.94218 3.10884 0.760132 4.68559 0.760132H8.20465L7.41498 1.32386H6.29905C7.0403 1.60588 7.43383 2.45869 7.43383 3.33463C7.42003 3.69245 7.32338 4.04237 7.15133 4.35749C6.97928 4.67261 6.73641 4.94454 6.44138 5.15235C5.87269 5.59176 5.76577 5.7755 5.76577 6.1481C5.76577 6.46706 6.37411 7.00798 6.69258 7.23218C7.62134 7.88199 7.92096 8.48778 7.92096 9.49509C7.92096 10.7552 6.69096 12.0037 4.46428 12.0037ZM13.5426 5.05695H11.337V7.23538H10.235V5.05695H8.02885V3.94332H10.235V1.7591H11.337V3.94332H13.5426V5.05727V5.05695ZM6.17003 3.40176C6.0134 2.22517 5.15126 1.27953 4.24655 1.25319C3.34185 1.22685 2.73416 2.12688 2.88982 3.30893C3.04548 4.49097 3.90859 5.46103 4.81395 5.4893C5.7193 5.51757 6.32732 4.5822 6.17003 3.40176ZM5.56949 7.91636C5.28587 7.82611 4.99003 7.77889 4.69208 7.77631C3.34347 7.7625 2.13394 8.59089 2.13394 9.58729C2.13394 10.6046 3.10884 11.4503 4.46071 11.4503C6.35722 11.4503 7.01787 10.6553 7.01787 9.63932C7.01679 9.51839 7.00219 9.39796 6.97433 9.28021C6.82712 8.7046 6.30165 8.41937 5.56949 7.91636Z" fill="white"/>
</svg>
