<svg width="14" height="8" viewBox="0 0 14 8" fill="none" xmlns="http://www.w3.org/2000/svg">
<path fill-rule="evenodd" clip-rule="evenodd" d="M10.8505 7.04633H10.756C10.1109 6.94579 9.71186 6.51376 9.33684 6.11129C9.12204 5.88644 8.77627 5.30249 8.39086 5.36319C7.84297 5.44735 8.14844 6.37886 7.91771 6.76431C7.73476 7.07299 6.94281 7.00746 6.40402 6.95125C4.69176 6.77748 3.76301 5.93045 2.99836 4.98738C2.21221 3.97475 1.54561 2.87671 1.01151 1.71458C0.822057 1.3333 0.538361 0.961666 0.538361 0.498803C0.816857 0.282951 1.31016 0.311859 1.76836 0.311859C2.15345 0.311859 2.71434 0.267854 2.99836 0.405331C3.16637 0.488203 3.33503 0.968091 3.47151 1.2469C3.73713 1.80419 4.05378 2.3363 4.41749 2.83656C4.5829 3.06141 4.87992 3.45521 5.17434 3.39772C5.46356 3.34247 5.44569 2.70937 5.45804 2.27573C5.47299 1.78268 5.51198 1.13576 5.36347 0.873012C5.22569 0.629215 4.95759 0.648166 4.70054 0.500731C4.91274 0.089262 5.50418 0.03305 6.21423 0.03305C6.80892 0.03305 7.58755 -0.0601003 7.8225 0.313466C8.05582 0.698917 7.93461 1.47913 7.91706 1.9966C7.89951 2.57799 7.78383 3.12951 8.20076 3.39932C8.52345 3.3672 8.67749 3.07169 8.86304 2.83817C9.27502 2.35295 9.62433 1.81896 9.90294 1.24851C10.0329 0.973229 10.1408 0.493986 10.3761 0.406938C10.8418 0.30634 11.3201 0.274837 11.7952 0.313466C12.2284 0.313466 12.9823 0.217103 13.1198 0.50041C13.2309 0.725256 12.9404 1.36543 12.8361 1.52828C12.4558 2.07991 12.0453 2.61059 11.6064 3.11794C11.4332 3.33669 11.1105 3.61453 11.1333 3.95951C11.2003 4.22956 11.3697 4.46387 11.6064 4.61413C12.0194 4.98643 12.3992 5.39319 12.7415 5.82991C12.8832 6.00272 13.2472 6.35605 13.2147 6.57897C13.1282 7.27503 10.8518 7.03991 10.8505 7.04633Z" fill="white"/>
</svg>
