<svg width="8" height="14" viewBox="0 0 8 14" fill="none" xmlns="http://www.w3.org/2000/svg">
<path fill-rule="evenodd" clip-rule="evenodd" d="M6.99431 9.15189C6.28186 9.54764 5.48334 9.76925 4.66583 9.79813L5.22051 10.4444L7.10586 12.4903C7.26541 12.6419 7.36434 12.8449 7.38465 13.0622C7.40497 13.2796 7.3453 13.497 7.21653 13.6747L7.10586 13.7823C6.95574 13.9221 6.75694 14 6.5503 14C6.34366 14 6.14486 13.9221 5.99474 13.7823C5.47295 13.27 4.75028 12.426 3.99871 11.6288L2.00446 13.7836C1.94077 13.8512 1.86358 13.9052 1.77774 13.942C1.69189 13.9789 1.59923 13.998 1.50557 13.998C1.4119 13.998 1.31925 13.9789 1.2334 13.942C1.14756 13.9052 1.07037 13.8512 1.00667 13.7836L0.896005 13.676C0.750783 13.5118 0.67079 13.3015 0.67079 13.0838C0.67079 12.8661 0.750783 12.6558 0.896005 12.4916C1.39735 11.9591 2.03069 11.2367 2.78092 10.4457L3.33515 9.79945C2.51753 9.77129 1.71883 9.54961 1.00667 9.1532C0.166218 8.58003 -0.210231 8.23964 0.117773 7.53827C0.307109 7.13705 0.86356 6.84872 1.55957 7.43064C2.27552 7.92116 3.12688 8.18409 3.99916 8.18409C4.87143 8.18409 5.72279 7.92116 6.43874 7.43064C7.13431 6.84872 7.69076 7.13705 7.8801 7.53827C8.21165 8.23833 7.83609 8.57697 6.99431 9.15189ZM4.00049 7.10599C3.06307 7.07702 2.17388 6.69006 1.52119 6.02703C0.868488 5.364 0.503507 4.47693 0.503507 3.55364C0.503507 2.63035 0.868488 1.7433 1.52119 1.08027C2.17388 0.417242 3.06307 0.0302842 4.00049 0.00131261C4.48262 -0.0115911 4.96248 0.0707541 5.41175 0.243473C5.86101 0.416192 6.27056 0.675786 6.6162 1.00693C6.96185 1.33807 7.23658 1.73404 7.42417 2.17145C7.61177 2.60886 7.70842 3.07884 7.70842 3.55364C7.70842 4.02844 7.61177 4.49844 7.42417 4.93585C7.23658 5.37326 6.96185 5.76923 6.6162 6.10037C6.27056 6.43151 5.86101 6.69111 5.41175 6.86383C4.96248 7.03655 4.48262 7.11889 4.00049 7.10599ZM4.00049 1.6145C3.4895 1.62564 3.00391 1.83606 2.65045 2.19952C2.297 2.56298 2.10461 3.04973 2.11558 3.55278C2.11225 3.79618 2.15893 4.03774 2.25281 4.26294C2.34668 4.48814 2.48582 4.69234 2.66187 4.86328C2.83792 5.03422 3.04725 5.16837 3.27728 5.25767C3.50731 5.34698 3.75331 5.3896 4.00049 5.38297C4.51159 5.40011 5.00874 5.21701 5.38291 4.87384C5.75708 4.53067 5.97775 4.05543 5.99652 3.55233C5.98244 3.03808 5.76678 2.54914 5.39471 2.18791C5.02264 1.82669 4.52302 1.62121 4.00049 1.6145Z" fill="white"/>
</svg>
