<svg width="14" height="11" viewBox="0 0 14 11" fill="none" xmlns="http://www.w3.org/2000/svg">
<path fill-rule="evenodd" clip-rule="evenodd" d="M13.5396 1.53931C13.0556 1.75104 12.5422 1.88974 12.0165 1.95079C12.5842 1.63063 13.0166 1.11963 13.2352 0.510814C12.6986 0.810335 12.1152 1.01891 11.5089 1.12786C11.2611 0.867965 10.9621 0.660906 10.6303 0.51944C10.2985 0.377974 9.94093 0.305081 9.57959 0.305235C9.23498 0.300559 8.89286 0.363535 8.57305 0.490523C8.25325 0.61751 7.96212 0.805988 7.71655 1.04501C7.47098 1.28404 7.27586 1.56885 7.14248 1.88297C7.0091 2.19709 6.94013 2.53425 6.93956 2.87491C6.93956 3.07952 6.93241 3.30277 6.93956 3.49196C5.88729 3.44952 4.8557 3.18964 3.91124 2.72907C2.96679 2.2685 2.13043 1.61745 1.45607 0.817888C1.23818 1.19237 1.13257 1.62038 1.15158 2.05197C1.13891 2.47578 1.23463 2.89591 1.42986 3.27344C1.6251 3.65097 1.91354 3.9737 2.26849 4.21178C1.84353 4.20417 1.42624 4.09859 1.04986 3.90343V4.00622C1.04986 5.26632 2.06473 6.23347 3.28401 6.47438C3.05266 6.53914 2.81373 6.5737 2.57331 6.57717C2.40442 6.59162 2.23459 6.59162 2.06571 6.57717C2.23094 7.087 2.55636 7.53147 2.99468 7.84595C3.43299 8.16042 3.96135 8.32853 4.50296 8.32584C3.58041 9.05546 2.4348 9.45427 1.25329 9.45713C1.03589 9.45713 0.749916 9.37522 0.542587 9.35402C1.78747 10.1395 3.229 10.5669 4.70574 10.5884C9.60527 10.5884 12.22 6.61797 12.22 3.18328C12.22 3.07021 12.2255 2.98605 12.22 2.87491C12.737 2.51116 13.1839 2.05881 13.5396 1.53931Z" fill="white"/>
</svg>
