<svg width="20" height="20" viewBox="0 0 20 20" fill="none" xmlns="http://www.w3.org/2000/svg">
<path d="M10 0C4.486 0 0 4.486 0 10C0 15.514 4.486 20 10 20C15.514 20 20 15.514 20 10C20 4.486 15.514 0 10 0ZM10 18.6667C5.22133 18.6667 1.33333 14.7787 1.33333 10C1.33333 5.22133 5.22133 1.33333 10 1.33333C14.7787 1.33333 18.6667 5.22133 18.6667 10C18.6667 14.7787 14.7787 18.6667 10 18.6667Z" fill="#FF9A01"/>
<path d="M15.457 11.9001L10.6663 9.58208V3.33341C10.6663 2.96475 10.3683 2.66675 9.99967 2.66675C9.63101 2.66675 9.33301 2.96475 9.33301 3.33341V10.0001C9.33301 10.0341 9.34701 10.0634 9.35234 10.0961C9.35967 10.1441 9.36367 10.1927 9.38101 10.2381C9.39634 10.2801 9.42301 10.3134 9.44634 10.3507C9.46834 10.3861 9.48701 10.4221 9.51567 10.4527C9.54967 10.4894 9.59167 10.5147 9.63301 10.5421C9.66034 10.5607 9.67967 10.5861 9.70967 10.6007L14.8763 13.1007C14.9703 13.1454 15.069 13.1674 15.1663 13.1674C15.4143 13.1674 15.6523 13.0287 15.767 12.7914C15.927 12.4587 15.7883 12.0607 15.457 11.9001Z" fill="#FF9A01"/>
</svg>
